<svg width="527" height="428" viewBox="0 0 527 428" fill="none" xmlns="http://www.w3.org/2000/svg">
<g clip-path="url(#clip0)">
<path d="M343.106 194.811L344.047 196.902L344.309 199.253L343.995 202.075L344.466 205.367L344.832 206.673L345.564 207.875L346.819 212.055V213.31L346.505 214.72L347.08 217.438L347.132 219.11L345.616 221.932L338.714 225.38L328.675 227.836L326.584 230.345L325.591 231.912L323.29 234.682L322.087 235.779L319.002 237.451L316.127 239.541L313.617 242.102L310.794 244.244L307.656 245.133L304.362 245.394L302.009 245.237L300.389 242.938L298.036 241.423L292.964 239.28L290.245 239.176L287.474 240.012L283.5 240.743L279.422 240.691L276.755 239.96L273.148 238.026L272.154 236.249L272.416 234.107L272.102 232.278L271.056 230.815L270.22 228.672L270.952 226.844L272.05 225.485L273.095 223.917L274.716 223.395L275.71 222.402L277.54 219.946L278.167 218.378L278.428 217.124L277.644 216.131L276.442 215.348L275.082 215.713L274.402 216.027L273.67 216.131L270.69 216.184L267.814 215.609L265.775 213.466L265.096 210.488L262.952 208.92L260.442 207.666L261.331 205.158L261.54 202.441L259.867 200.089L257.828 197.947L256.05 195.334V189.063L257.305 188.123L257.409 187.339V186.607L259.187 184.099L258.821 182.636L259.083 180.912V177.515L260.808 171.715L259.658 168.37L260.442 165.078L262.638 162.622L264.207 161.891L265.252 160.48L265.462 159.017L265.88 157.763L268.39 157.292L270.952 157.972L272.468 159.905L273.357 162.309L273.566 164.504L273.514 171.558L275.134 172.655L280.154 171.767L282.925 172.76L283.866 175.791L284.075 179.396L283.709 180.703L282.977 181.904L282.402 183.159L282.193 184.517L283.239 185.614L284.807 186.085L286.742 188.384L288.258 190.997L290.925 191.885L297.095 193.035L303.944 192.669L305.67 192.303L307.186 191.676L308.493 188.959L309.591 188.018L312.467 186.921L312.885 185.458L312.31 183.89L310.584 181.486L311.16 180.494L311.787 180.075L313.146 179.762L334.479 189.69L341.747 194.237L343.106 194.811Z" fill="#FDD037" stroke="white" stroke-width="1.89" stroke-linejoin="round"/>
<path d="M481.821 130.904L479.259 131.06L472.933 132.419L471.521 132.262L470.109 131.74L469.639 131.322L469.011 131.217L467.547 131.426L467.181 133.934V136.965L466.606 140.048L464.201 146.005L462.684 151.91L460.488 153.112L457.508 152.485L454.946 150.813L452.541 148.67L449.613 147.364L445.848 146.841L442.293 147.677L439.94 150.447L437.378 152.746L435.757 152.851L434.659 153.687L433.875 155.254L432.672 156.613L429.535 158.024L426.032 158.39L422.895 159.069L420.385 161.211L415.888 167.064L410.346 170.983L403.34 170.617L400.255 168.632L397.327 163.876L395.706 162.831L393.824 162.1L392.203 160.95L390.843 159.278L389.902 157.345L390.007 155.411L393.249 150.133L392.673 146.319L394.399 145.849L395.706 144.751L396.752 143.445L397.222 141.877L396.909 138.167L397.536 134.614L399.994 131.896L410.242 128.291L412.96 126.253L414.268 123.222L414.058 119.46L414.268 115.697L415.209 114.287L416.411 113.032L418.189 109.793L422.581 104.306L422.372 102.686L421.588 101.118L420.333 99.6552L418.555 99.0804L417.091 99.2895L415.941 98.9237L416.202 97.147L418.816 91.9738L419.026 89.9881L417.98 85.5464L420.019 70.6015L419.13 63.9129L423.888 59.3667L425.823 56.7017L426.921 53.9845L426.555 51.215L424.202 49.4906L422.267 47.3481L421.483 44.4741L422.529 35.8521L423.731 35.9043L424.725 36.0611L425.561 36.3746L426.241 36.5314L426.869 36.2178L427.078 35.6953L427.444 33.2916L427.653 33.1348L428.96 32.8735L429.535 31.9852L429.797 30.9924L429.117 30.7311L429.431 30.104L429.953 29.2679L430.11 28.5364L431.679 27.021H432.359L432.986 26.4984L433.091 25.5056L434.345 26.5507L435.025 26.7075L435.391 26.4462L435.705 25.4533L436.228 25.1921L437.221 24.983L437.901 24.4082L439.051 23.0496L439.522 22.109L440.097 22.7883L440.724 22.7361L440.254 21.691L440.358 21.5342L441.247 21.1684L441.822 21.0639L441.77 20.5936L442.973 19.235L443.548 18.7647L443.025 18.1377L442.345 17.8764V17.5106L443.548 17.9809L443.966 17.9286L444.123 17.1971L445.378 17.4583L446.58 17.2493L450.45 15.2636L451.6 14.8456L452.802 14.7933L452.541 15.4727L453.012 15.6817L453.848 15.6294L454.58 15.3682L454.894 15.6817L455.208 14.9501L455.469 14.7933L455.887 14.8456L455.992 15.2114L455.73 15.9952L456.881 15.4727L458.083 15.2636L459.129 14.8979L459.913 13.8528L459.286 13.7483L459.181 13.5392L459.6 12.9122L460.384 12.8077L460.488 12.4419L460.227 11.8671L460.488 11.24L460.75 10.8742L462.528 9.20208L463.155 8.73179V8.00022L463.521 7.63443L464.828 7.42542L475.599 7.89571L485.533 21.9L495.52 35.9043L500.383 59.628L500.435 63.0768L500.749 64.0174V64.9058L500.487 66.2644V66.7869L500.906 67.4663L501.481 67.7798L502.16 67.9365L511.101 68.1978L513.873 68.9294L515.075 69.5564L515.18 69.9745L514.971 70.6538L515.075 71.0718L515.389 71.3854L516.644 72.3259L517.114 72.535V72.9008L516.539 73.162L517.376 73.7891L518.265 74.2594L518.944 74.8342L519.258 75.7748L519.467 75.9838L521.036 75.3045L521.559 75.5658L521.82 76.5063L520.983 77.3424L520.408 78.3875L519.624 81.5751L519.729 82.0454L518.944 82.5679L519.049 83.4562L519.885 85.3374L519.938 86.1735L519.781 87.6366L519.31 89.0475L518.369 93.5937L518.055 94.3252L516.435 96.4677L516.225 96.8335L516.33 97.1993L516.696 97.7741L517.637 97.8263L517.951 98.0353L518.526 98.9237L519.206 99.6552L519.729 100.387L519.938 101.275L519.99 102.425L519.833 103.313L519.467 104.41L519.049 105.508L518.526 106.292L517.742 106.71L515.493 107.546L514.605 108.068L512.984 109.531L512.095 110.054L509.533 110.89L508.696 111.36L504.827 114.966L504.461 115.07L503.311 115.227L502.788 115.436L501.585 116.69L500.801 117.265L499.86 117.788L498.919 117.997L498.03 117.892L494.945 116.586L493.272 116.063H491.912L490.239 117.422L488.618 119.094L487.154 120.923L486.109 122.804L485.377 124.581L484.854 125.26L483.181 126.201L482.501 126.828L482.03 127.612L481.821 128.5L482.135 130.172L481.821 130.904Z" fill="#FDD037" stroke="white" stroke-width="1.89" stroke-linejoin="round"/>
<path d="M177.569 31.5672L175.373 33.2916L171.974 35.2773H167.739L163.504 34.2322L162.772 33.5529L162.092 32.7168L160.523 32.2465L159.582 32.0897H157.543L156.916 32.6645L156.707 33.7619L156.654 34.9637L156.131 36.7927L155.086 37.1062L153.36 36.4269L150.223 36.8449L147.452 38.3603L146.981 39.6144L147.713 47.2436L146.458 49.6996L144.89 50.3789L143.269 50.8492L133.439 51.7898L131.243 53.5142L129.622 56.1792L127.374 59.0532L125.283 60.4641L125.021 63.3904L125.91 66.6824L126.067 70.1313L123.923 72.4827L110.643 73.0053L104.211 71.9602L102.643 77.2902L102.277 98.1399L101.44 98.6624L100.499 98.7669L100.028 98.0876L99.3488 97.6696L98.3553 97.9831L97.6756 97.6173L96.7345 97.4083L95.8456 97.6173L87.5844 101.38L86.0681 103.261L84.1335 104.463L82.1989 103.783L80.7872 102.216L81.1532 97.9831L83.0878 93.8027L84.5518 86.8528L84.2381 69.7655L85.8067 66.996L88.9438 66.2121L91.9241 67.1527L93.8587 66.1599L94.0156 62.8156L92.7084 55.6567L92.9176 53.9323L93.3359 52.3124L93.7019 49.0726L92.7084 46.3031L91.2444 43.7948L91.5058 41.9659L91.9764 40.2937L92.2379 39.6667L92.447 38.9874V38.1513L92.5516 37.3152L93.2313 36.0088L93.3882 34.598L92.6039 33.6574L91.4536 34.0232L90.6693 35.1205L89.9896 36.2701L88.6301 37.1062L87.0092 36.9494L85.4407 36.2179L83.9767 35.1728L82.4604 34.6502L80.8918 34.2322L77.9638 33.1348L75.2449 31.5149L73.9377 30.2608L72.5783 29.1635L71.0097 29.5292L69.4934 30.2608L66.67 29.7905L63.376 29.895L63.01 29.9473L63.1668 28.9544L63.2191 18.2422L66.0425 18.1377L67.3497 17.8764L68.6046 17.3016L75.4017 10.7175L77.4409 9.25436L79.7938 8.31377L93.6496 4.91721L95.0613 4.76044L96.0547 5.23073L96.9959 6.17132L97.9893 6.58936L100.551 6.74613L104.943 5.9623L111.165 6.22358L112.682 5.9623L113.152 5.75328L114.512 4.76044L115.087 4.02887L115.819 2.40897L116.342 1.72966L117.544 1.1026L123.975 0.00524902L125.387 0.318778L150.014 10.1427L150.955 10.7175L151.426 10.613L153.935 9.2021L154.772 8.99308L157.909 9.72465L160.785 11.3968L166.902 17.1971L174.013 25.0353L177.569 31.5672Z" fill="#FDD037" stroke="white" stroke-width="1.89" stroke-linejoin="round"/>
<path d="M274.246 46.3553L273.984 47.4527L273.252 47.8185L272.729 48.2888L272.311 48.9158L271.997 49.7519L271.527 50.5357L269.592 52.0511L267.501 53.2007L265.148 53.7233L263.422 53.5665L262.795 52.9917L262.272 52.3124L260.86 53.0962L259.867 53.1485L258.821 52.7304L257.775 52.1034L256.625 50.0654L255.841 47.7662L255.004 46.9824L248.312 47.2959L245.488 46.9301L242.351 46.9824L237.698 47.714L237.122 48.8636L236.756 51.8421L236.809 54.7161L239.109 56.127L242.56 56.2315L243.501 57.2243L244.024 58.583H241.88L239.894 59.21L238.848 61.0912L237.384 65.3761L235.815 66.8915L228.182 69.7655L224.835 72.117L224.312 74.1027L224.731 78.4398L224.469 87.7412L225.41 90.6152L225.62 92.0261L225.567 92.8621L225.306 93.6982L225.463 94.3775L225.881 94.9523L226.979 97.7219L227.136 99.4463L225.149 99.9166L222.744 101.171L220.705 101.693L219.345 103.313L218.665 105.456L218.352 107.598L219.031 109.845L222.012 112.405L220.495 114.705L216.992 116.168L215.737 115.593L214.901 114.443L213.385 113.346L211.711 112.614L208.522 111.987L205.803 113.607L205.071 115.018L204.862 116.586L203.659 117.265L202.091 116.69L198.797 116.638L198.065 119.042L198.797 120.139L198.849 121.446L197.803 122.595L196.339 123.379L194.928 123.17L192.627 120.818L191.111 119.878L187.921 119.042L187.869 117.788L189.072 116.481L189.751 115.959L189.908 115.123L189.385 114.078L188.444 113.398L186.144 113.346L185.098 113.085L183.111 112.092L183.791 110.106L184.209 108.068L184.052 106.501L184.314 104.985L182.85 102.268L184.47 94.3253L186.98 93.1234H190.222L191.111 93.7505L191.843 93.3847L193.673 91.9738L194.718 90.9287L194.928 89.4656L195.712 88.734L197.071 89.0998L198.378 88.5772L197.908 85.9645L195.503 83.9788L194.039 83.2995L193.15 82.2022L193.882 80.8435L194.823 78.2308L195.084 77.0812L194.823 75.7226L194.457 74.4684L194.196 72.1692L193.568 69.9223L192.366 67.5708L192.575 64.9058L191.634 62.6588L190.274 44.2651L191.006 39.6144L192.156 39.0919L194.248 37.263L196.862 34.1277L197.856 33.9709L202.352 34.807H203.921L205.28 34.3367L221.123 24.7741L222.587 24.0948L224.103 23.938L235.136 25.5056L236.286 25.9759L236.809 26.394L237.854 27.3346L239.005 28.1184L240.521 29.268L241.148 29.5815L242.403 29.895L243.031 30.2086L243.606 30.7311L244.704 32.0375L249.044 36.0089L249.985 36.3746L251.135 35.8521L252.704 35.7476L253.906 36.0089L254.952 36.4792L256.834 37.9423L257.671 38.8829L258.926 40.9731L259.71 41.8614L261.279 42.802L272.729 46.1986L274.246 46.3553Z" fill="#FDD037" stroke="white" stroke-width="1.89" stroke-linejoin="round"/>
<path d="M392.673 146.319L393.249 150.133L390.007 155.411L389.902 157.345L390.843 159.278L392.203 160.95L393.824 162.1L395.706 162.831L397.327 163.876L400.255 168.632L403.34 170.617L402.869 174.432L403.131 180.284L402.451 182.113L400.83 183.42L392.778 188.279L389.066 189.952L385.092 190.579L369.824 191.206L365.171 190.84L365.485 189.795L364.491 188.541L363.289 186.033L362.557 183.263L362.243 180.441L360.988 177.515L351.995 170.826L350.165 168.266L350.426 166.803L355.394 164.294L355.498 162.988L355.341 161.682L355.446 155.516L354.505 152.851L351.734 151.126L348.649 149.663L348.178 146.162L346.819 143.131L342.165 141.093L342.27 139.891L344.57 136.652L345.198 135.032L346.714 129.806L348.021 126.514L349.328 125.365L352.622 124.372L354.034 123.274L356.126 120.4L360.204 118.049L361.25 116.899L361.929 115.907L362.818 115.279L368.883 113.66L374.844 116.586L377.615 118.781L380.02 121.341L382.112 124.215L386.661 128.813L387.602 130.015L387.863 131.531L387.34 141.668L387.602 144.856L388.02 146.162L391.053 146.476L392.673 146.319Z" fill="#FDD037" stroke="white" stroke-width="1.89" stroke-linejoin="round"/>
<path d="M362.818 115.28L361.929 115.907L361.25 116.899L360.204 118.049L356.126 120.4L354.034 123.275L352.622 124.372L349.328 125.365L348.021 126.514L346.714 129.806L345.198 135.032L344.57 136.652L342.27 139.892L342.165 141.093L346.819 143.131L348.178 146.162L348.649 149.663L351.734 151.126L354.505 152.851L355.446 155.516L355.341 161.682L355.498 162.988L355.394 164.295L350.426 166.803L350.165 168.266L351.995 170.826L360.988 177.515L362.243 180.441L362.557 183.263L363.289 186.033L364.491 188.541L365.485 189.795L365.171 190.84H362.191L359.158 190.108L356.282 190.579L350.949 193.139L345.407 193.296L343.106 194.811L341.747 194.237L334.479 189.69L313.146 179.762L311.787 180.076L311.16 180.494L310.584 181.486L312.31 183.89L312.885 185.458L312.467 186.921L309.591 188.018L308.493 188.959L307.186 191.676L305.67 192.303L303.944 192.669L297.095 193.035L290.925 191.885L288.258 190.997L286.742 188.384L284.807 186.085L283.239 185.615L282.193 184.517L282.402 183.159L282.977 181.904L283.709 180.703L284.075 179.396L283.866 175.791L282.925 172.76L280.154 171.767L275.134 172.655L273.514 171.558L273.566 164.504L273.357 162.309L272.468 159.905L270.952 157.972L268.39 157.292L265.88 157.763L264.939 156.665L263.945 155.725L262.638 154.993L262.011 153.844L263.527 151.179L263.998 148.305L265.984 146.11L267.187 143.184L266.873 140.153L264.886 137.801L263.684 134.405L263.527 130.695L263.788 127.35L265.148 124.581L267.71 124.424L269.278 123.693L270.481 122.438L272.154 119.878L276.598 115.227L279.526 113.869L280.938 114.652L281.723 114.496L285.017 113.137L287.683 113.189L290.245 113.921L292.964 115.07L295.735 115.227L298.454 114.809L300.179 117.004L302.376 117.788L307.97 117.37L310.48 116.743L312.362 118.519L313.356 121.184V124.058L312.99 126.88L313.983 129.336L316.493 130.381L323.342 129.859L324.858 130.642L326.532 131.27L327.734 130.538L327.211 128.918L328.153 125.94L332.963 124.058L334.427 123.118L335.473 121.916L335.682 120.453L332.545 119.408L328.832 119.251L321.93 117.945L318.741 116.69L314.558 111.099L312.78 107.912L311.996 108.173H310.584L309.748 106.971L309.905 105.508L311.369 102.791L311.316 101.275L310.637 98.0877L309.957 96.6245L308.493 96.2587L306.924 96.4678L304.258 97.1993L302.428 95.9452L303.317 92.6532L305.67 90.563L309.33 90.2494L310.794 89.5701L312.205 88.6295L325.486 83.5608L326.166 82.0454L325.8 80.2165L326.061 78.7534L329.198 69.9223L329.617 67.9366L330.244 66.0032L331.237 65.0626L332.597 64.54L335.839 63.9652L337.198 64.8536L339.499 65.4284L345.25 61.5615L348.178 63.5995L350.688 66.0554L351.263 67.7276L351.943 71.2287L351.995 73.0053L352.204 74.573L353.093 75.9839L353.982 77.7083L354.243 79.6417L354.296 82.7247L355.603 89.8314L360.831 102.791L361.093 106.553L359.576 113.451L360.727 114.914L362.818 115.28Z" fill="#FDD037" stroke="white" stroke-width="1.89" stroke-linejoin="round"/>
<path d="M204.078 347.396L201.15 348.963L199.111 351.524L197.333 351.942L195.555 352.517L191.581 351.681L189.594 351.89L187.66 352.36L185.987 353.353L185.412 355.234L183.738 358.735L182.013 359.205L180.131 358.421L176.732 359.362L173.856 361.713L172.392 361.609L171.085 360.407L171.242 358.578L171.556 357.376L171.974 356.279L172.811 354.764L174.536 352.464L174.798 351.681L174.745 350.531L175.32 348.284L175.164 345.985L175.373 344.992L176.209 344.313L177.255 343.895L177.516 343.529L177.726 342.954L177.83 341.021L177.778 340.394L177.569 339.819L176.994 338.721L176.784 338.094L176.628 336.422L175.843 334.28L175.582 331.876L174.379 327.591L174.17 326.285V324.926L174.588 324.822L175.53 324.874L176.68 325.135L177.778 324.926L179.242 323.515L180.183 319.23L181.229 317.14L184.157 314.371L184.523 315.572L184.47 316.983L185.046 317.245L187.398 317.14L189.908 318.237L191.268 318.499L192.627 319.074L192.418 322.052L190.013 324.665L188.81 327.957L189.228 329.054L189.856 329.368L191.32 329.629L191.947 329.995L192.836 331.197L194.614 335.22L194.039 335.743V336.579L193.777 337.885L194.143 338.408L194.823 338.251L195.451 337.781L196.13 338.251L196.339 339.296L197.385 340.08L197.124 341.595L197.647 342.849L198.379 344.051L198.849 345.41L199.79 346.507L200.993 346.716L202.143 346.351L202.614 346.403L203.398 346.873L203.607 347.343L204.078 347.396Z" fill="#FDD037" stroke="white" stroke-width="1.89" stroke-linejoin="round"/>
<path d="M81.9375 259.189L82.2512 260.652L82.1466 262.168L81.5715 263.004L80.6303 263.161L79.8461 263.474L79.0095 263.945L78.2775 264.572L77.8592 264.728L77.3363 265.408L76.0815 266.296L75.1403 267.237L73.4149 266.871L71.794 264.258L70.5914 263.213L69.232 262.69L68.2908 263.631L67.5066 264.781L66.67 265.564L66.7223 266.505L64.474 268.125L61.5459 267.341L60.8139 269.327L60.6571 272.201L60.4479 273.507L60.0296 274.761L59.2976 275.859L59.2454 277.113L60.1342 278.106L61.3368 278.889L62.3302 280.091L63.0099 281.502L63.8465 282.495L64.108 283.749L61.1277 299.635L59.8205 299.844L58.5133 299.948L57.1016 300.418L55.899 301.202L53.2325 301.934L47.847 302.561L45.2327 302.456L46.4353 300.471L48.0561 298.224L47.5333 295.611L47.2196 294.984L47.115 294.305V293.469L46.8536 292.685L45.5987 292.005L44.2915 291.065L44.187 290.333L44.2393 287.877L42.723 285.735L38.3832 285.63L37.0761 286.205L35.8212 286.884L34.5663 286.205L33.782 284.063L32.2135 282.861L30.3835 284.063L28.658 288.4L26.8803 289.915L24.4751 290.02L22.07 289.184L19.0374 286.414L17.0505 282.861L15.6388 280.98L13.8088 279.464L12.9722 277.217L12.9199 276.277L14.5408 271.835L14.2794 267.968L12.6062 268.02L11.9788 269.954L11.5605 272.201L10.3579 271.992L9.57361 269.588L9.36447 264.728L8.26646 262.638L4.03129 262.534L0.318981 265.199L0.00526428 265.355L0.0575503 264.833L0.684983 263.579L0.841841 260.809L1.3647 258.04L1.46927 255.427L1.62613 254.591L1.93985 253.859L2.41042 253.128L2.72414 252.292L2.77642 251.351L2.46271 250.411L1.62613 248.582L1.26013 247.641L1.10327 246.544L1.15556 245.708L1.52156 243.931L1.41699 242.311L1.62613 241.736L2.51499 240.743L2.82871 240.221L3.19471 238.758L3.09014 237.451L5.65216 235.257L7.32531 235.309L10.7762 234.525L11.8219 233.846L12.6062 232.853L15.0114 230.919L16.0048 230.501L16.3185 230.083L16.9982 229.509L17.8871 228.986L19.6648 227.418L20.606 226.844L21.5994 226.53L22.2791 226.478L23.0111 226.635L23.3248 227.105L23.8477 227.366L24.3183 227.889L24.8934 227.784L30.0175 225.433L31.952 223.97L33.7298 223.081L35.6121 221.67L44.553 217.176L45.5464 216.445L46.383 215.504L46.8013 212.63L47.8993 210.488L49.8339 209.077L51.9253 208.868L53.9122 209.756L55.167 211.376L56.1605 213.31L57.8336 214.773L59.7682 215.766L64.8922 217.594L68.0817 218.326H69.2843L71.428 217.02L72.16 218.692L70.696 220.834L69.232 221.67L68.1863 222.768L67.4543 223.917L66.5131 224.858L65.938 227.523L66.5131 230.188L70.3823 238.758L71.8986 241.109L73.4149 247.014L74.9834 249.313L75.9769 250.202L77.1272 250.933L78.6958 253.494L79.9506 257.674L80.4735 258.562L81.2055 258.719L81.9375 259.189Z" fill="#1CB448" stroke="white" stroke-width="1.89" stroke-linejoin="round"/>
<path d="M104.055 259.294L103.061 262.899L101.702 264.101L100.081 264.885L98.0416 267.55L97.6756 272.828L97.205 274.761L97.4665 277.008L100.917 286.362L100.865 288.086L98.7213 288.713L96.839 289.654L96.0547 291.744L95.6887 293.834L95.741 297.126L95.5842 298.276L95.6887 299.269L95.5842 300.262L95.1136 300.575L93.9633 300.471L93.4404 300.209L91.2444 298.798L89.6236 298.119L87.8981 298.589L86.0681 300.105L84.8655 302.091L84.5518 303.24L83.8721 304.181L82.1989 305.069L81.5192 304.233L79.7415 304.39L78.9572 304.599L78.2252 304.912L77.2841 304.86L76.3952 304.599L74.8266 305.435L73.624 305.383L73.3626 304.756L73.258 304.024L72.8397 302.927L72.3169 301.829L70.9052 300.627L68.866 300.68L67.2451 301.725L65.4674 301.934L65.1014 300L64.2126 298.119L61.1277 299.635L64.108 283.749L63.8465 282.495L63.01 281.502L62.3302 280.091L61.3368 278.889L60.1342 278.106L59.2454 277.113L59.2977 275.859L60.0297 274.761L60.448 273.507L60.6571 272.201L60.814 269.327L61.546 267.341L64.474 268.125L66.7223 266.505L66.67 265.564L67.5066 264.781L68.2909 263.631L69.232 262.69L70.5914 263.213L71.794 264.258L73.4149 266.871L75.1403 267.237L76.0815 266.296L77.3363 265.408L77.8592 264.728L78.2775 264.572L79.0095 263.945L79.8461 263.474L80.6304 263.161L81.5715 263.004L82.1467 262.168L82.2512 260.652L81.9375 259.189L84.761 259.033L87.5844 259.294L90.0419 258.771L91.1399 258.301L92.3424 258.04L95.1659 257.778L96.8913 257.099L98.7213 257.151L99.6102 258.667L100.917 259.503L103.427 259.189L104.055 259.294Z" fill="#1CB448" stroke="white" stroke-width="1.89" stroke-linejoin="round"/>
<path d="M136.576 271.365L135.792 272.619L134.694 273.037L133.492 272.514L132.394 273.141L131.975 273.925L131.4 274.657L130.302 275.336L128.368 277.374L127.792 278.628L127.06 282.809L124.655 288.4L120.054 292.267L117.649 291.326L116.708 288.243L115.662 286.153L113.414 285.474L110.329 285.63L105.571 285.317L103.95 285.369L100.917 286.362L97.4665 277.008L97.205 274.761L97.6756 272.828L98.0416 267.55L100.081 264.885L101.702 264.101L103.061 262.899L104.055 259.294L104.577 259.607L104.787 260.391L105.675 260.757L108.394 259.921L111.27 261.75L112.995 261.854L114.093 262.116L115.923 261.802H116.655L117.178 260.757L117.44 259.346L118.381 258.249L119.897 257.778L124.603 257.622L123.714 258.824L123.766 260.705L124.603 261.018L125.806 260.287L127.374 259.921L128.943 259.764L129.779 259.869L130.407 260.339L130.354 261.332L129.361 261.907L128.106 263.474L127.792 265.355L128.42 267.237L129.884 268.543L130.459 268.491L131.191 269.118L134.59 270.79L136.576 271.365Z" fill="#FDD037" stroke="white" stroke-width="1.89" stroke-linejoin="round"/>
<path d="M145.988 279.412L145.204 280.718L144.21 281.92L143.687 282.182L142.485 282.443L141.91 282.965L141.491 284.481L142.798 285.317L143.008 286.101L142.537 287.041L142.694 288.4L142.955 289.027L143.112 290.02L142.694 291.431L142.119 292.058L141.387 292.528L140.341 293.469L139.4 294.566L139.348 295.141L139.452 295.559L137.465 300.157L137.204 301.202L136.629 301.986L135.478 303.188L134.903 304.756L134.799 306.323L135.426 307.63L135.583 308.152L135.008 308.936L135.06 309.615L134.067 309.877L133.648 310.974L133.126 313.743L132.916 314.37L132.289 315.416L131.818 315.729L131.086 315.99L129.727 315.677L129.152 315.154L127.897 315.05L125.753 316.774L124.812 316.931L123.662 314.057L124.08 312.803L124.812 311.706L122.825 310.138H110.643L109.911 310.451L109.388 311.026V312.176L108.708 313.116L108.133 314.266L106.564 315.781L105.257 317.454L104.734 318.394L104.577 319.805L104.421 320.432V321.791L104.63 322.156L104.996 322.313L105.728 323.515L106.512 325.814L105.519 328.114L104.787 329.211L104.473 330.517L103.845 331.615L102.747 332.189L101.806 332.503L101.179 333.444L100.97 334.698L100.342 335.9L100.604 336.318L101.492 336.84L102.538 337.728L103.427 338.826L103.532 339.401L104.473 339.557L105.466 340.132L106.303 341.386L106.251 342.797L101.388 354.659L96.3162 348.023L95.4273 347.187L93.7019 346.455L92.9176 345.567L91.8196 343.842L90.3033 342.222L88.9438 341.177L84.2381 338.199L81.5715 335.691L79.8983 334.593L79.2186 334.28L79.2709 334.227L81.8852 334.436L82.5649 333.653L82.5127 332.451L80.1075 331.406H78.8003L78.016 330.517L78.7481 330.256L80.1598 330.047L82.3558 328.427L83.0355 328.218L83.5584 327.695L83.6629 327.068L83.2447 325.031V321.947L82.4604 320.798L81.3624 321.32L80.6826 322.313L78.8003 323.515L76.552 323.411L75.82 323.306L74.4083 322.836L73.8332 322.418L73.2057 321.32V319.962L74.3037 317.088L76.4475 314.789L80.3689 311.915L81.2055 310.817L82.1989 305.069L83.8721 304.181L84.5518 303.24L84.8655 302.091L86.0681 300.105L87.8981 298.59L89.6235 298.119L91.2444 298.799L93.4404 300.209L93.9633 300.471L95.1136 300.575L95.5842 300.262L95.6887 299.269L95.5842 298.276L95.741 297.126L95.6887 293.834L96.0547 291.744L96.839 289.654L98.7213 288.713L100.865 288.086L100.917 286.362L103.95 285.369L105.571 285.317L110.329 285.63L113.414 285.474L115.662 286.153L116.708 288.243L117.649 291.326L120.054 292.267L124.655 288.4L127.06 282.809L127.792 278.628L128.368 277.374L130.302 275.336L131.4 274.657L131.975 273.925L132.394 273.141L133.492 272.514L134.694 273.037L135.792 272.619L136.576 271.365L140.08 270.738L141.387 271.312L141.073 273.037L143.269 276.433L145.988 279.412Z" fill="#FDD037" stroke="white" stroke-width="1.89" stroke-linejoin="round"/>
<path d="M61.1276 299.635L64.2125 298.119L65.1014 300L65.4674 301.934L67.2451 301.725L68.866 300.68L70.9051 300.627L72.3169 301.829L72.8397 302.927L73.258 304.024L73.3626 304.756L73.624 305.383L74.8266 305.435L76.3952 304.599L77.284 304.86L78.2252 304.912L78.9572 304.599L79.7415 304.39L81.5192 304.233L82.1989 305.069L81.2055 310.817L80.3689 311.915L76.4475 314.789L74.3037 317.088L73.2057 319.962V321.32L73.8332 322.418L74.4083 322.836L75.82 323.306L76.552 323.411L78.8003 323.515L80.6826 322.313L81.3623 321.32L82.4603 320.798L83.2446 321.947V325.03L83.6629 327.068L83.5584 327.695L83.0355 328.218L82.3558 328.427L80.1598 330.047L78.748 330.256L78.016 330.517L78.8003 331.406H80.1075L82.5126 332.451L82.5649 333.653L81.8852 334.436L79.2709 334.227L79.2186 334.28L75.4017 332.607L72.6306 332.085L72.8397 330.779L72.7874 329.629L71.5849 329.211L69.0751 329.106L68.0817 329.368L67.3497 328.897L66.7223 328.323L65.5197 328.009L64.5262 327.382L64.4217 326.285L66.9314 324.926L67.3497 323.985L66.8791 323.097L65.6242 322.627L64.2125 322.94L62.9054 323.829L61.5982 324.508L60.3434 323.515L60.2911 322.94L59.8728 321.895L60.2388 320.798L61.2845 319.962L61.7551 318.812L59.1931 318.133L33.782 318.237L33.3638 318.655L33.2592 319.282L32.7363 320.014L31.8997 320.171L30.3312 320.119L29.3377 318.812L27.3509 317.767L26.3051 317.454L24.9457 318.028L24.6843 318.655L24.0568 320.902L23.3771 321.634L22.7497 322.522L22.2791 324.665L21.6517 325.396L19.0897 325.71L9.57361 325.292L9.10303 325.553L9.15532 326.18L8.31874 327.121L7.16845 327.905L6.07044 327.957L4.92015 327.591L3.45614 327.748L1.7307 327.591L1.88756 326.703L2.881 323.881L2.93328 322.993L2.56728 321.111V320.223L3.09014 319.282L3.87443 318.603L4.39729 318.237L4.65872 317.715L4.50186 315.729L4.44958 315.259L4.18815 315.05L3.19471 314.893L2.46271 314.161L2.25356 313.325L2.35814 312.385L2.82871 310.556L2.61957 308.675L2.04442 307.003L1.88756 305.435L3.03785 303.867L4.55415 303.188L4.71101 302.718L4.44958 302.3L3.29928 301.359L2.93328 300.889L2.82871 300.053L3.40386 298.903L3.76986 298.433L3.92672 297.44L3.03785 286.623L3.14243 286.153L3.45614 285.944H3.92672L4.86787 286.153L5.1293 285.421L5.23387 283.592L4.29272 281.972L2.98557 280.457L2.14899 278.837L1.88756 277.113L2.41042 269.745L2.30585 269.118L1.88756 268.491L0.894127 267.289L0.371267 266.035L0.00526428 265.355L0.318981 265.199L4.03129 262.534L8.26646 262.638L9.36447 264.728L9.57361 269.588L10.3579 271.992L11.5605 272.201L11.9788 269.954L12.6062 268.02L14.2794 267.968L14.5408 271.835L12.9199 276.277L12.9722 277.217L13.8088 279.464L15.6388 280.98L17.0505 282.861L19.0374 286.414L22.07 289.184L24.4751 290.02L26.8803 289.915L28.658 288.4L30.3835 284.063L32.2135 282.861L33.782 284.063L34.5663 286.205L35.8212 286.884L37.0761 286.205L38.3832 285.63L42.723 285.735L44.2393 287.877L44.187 290.333L44.2915 291.065L45.5987 292.005L46.8536 292.685L47.115 293.469V294.305L47.2196 294.984L47.5333 295.611L48.0561 298.224L46.4353 300.471L45.2327 302.456L47.847 302.561L53.2325 301.934L55.899 301.202L57.1016 300.418L58.5133 299.948L59.8205 299.844L61.1276 299.635Z" fill="#1CB448" stroke="white" stroke-width="1.89" stroke-linejoin="round"/>
<path d="M145.936 123.379L147.766 125.835L151.112 131.478L151.792 134.405L150.903 134.823L150.066 135.816L149.7 136.913L149.439 140.623L149.491 141.72L150.223 143.967L150.275 145.012L150.066 146.005L149.439 147.521L149.334 148.043L149.23 149.82L148.968 150.342L148.811 151.231L149.073 152.746L150.485 153.791L151.583 155.098L152.315 156.613L153.831 156.404L154.929 155.15L155.87 153.687L158.118 151.231L163.295 147.207L166.38 146.528L167.53 147.312L168.105 148.67L169.464 148.932L172.654 147.468L174.275 147.155L175.948 147.416L176.941 146.737L176.732 144.96L178.144 144.385L179.712 144.49L181.072 145.012L181.438 145.901L181.699 149.454L182.431 149.663L183.948 149.193L186.353 151.231L186.405 154.784L185.83 156.352L186.771 157.345L189.856 158.494L191.163 159.383L191.059 160.898L190.013 162.257L188.601 163.197L187.189 164.347L186.039 165.758L184.575 166.698L183.529 167.9L185.516 170.461L188.601 171.819L191.843 172.185L198.274 172.08L200.365 173.544L201.202 180.598L201.15 182.218L199.999 183.158L198.64 183.263L197.699 183.995L198.588 185.196L200.156 185.667L201.097 186.451L200.731 187.652L201.359 188.75L202.666 189.429L202.927 190.84L201.934 191.937L201.307 192.512L200.888 193.244L200.731 194.132L200.47 194.968L198.117 196.692L197.751 198.312L198.64 199.671L199.215 200.037L199.947 200.977L199.843 201.604L199.372 202.963L199.633 203.642L200.731 203.329L201.777 203.59L195.66 212.317L195.398 212.369L193.307 211.219L189.281 207.248L186.666 206.464L178.614 206.778L177.569 207.248L177.36 208.502L177.778 239.907L178.039 240.691L179.085 242.572L181.072 242.781L180.497 244.506L179.19 245.76L178.301 246.073L177.621 246.753L177.726 247.746L177.516 248.477L176.889 248.111L176.366 248.529L175.843 249.627L175.582 250.776L174.85 251.56L174.693 251.299L174.066 250.724L174.013 250.463L173.49 250.201L171.87 248.425L170.144 245.708L169.621 245.133L165.334 241.841L165.02 241.684L164.027 239.646L163.451 237.556L163.347 236.249L163.085 235.466L162.719 235.1L162.04 233.689L161.935 232.539L160.889 230.71L160.314 230.136L159.635 229.77L158.746 229.613L157.125 228.516L156.811 228.254L156.079 228.202L154.145 228.568L151.739 229.038L151.426 228.934L150.066 227.68L149.439 227.418L148.759 227.314L144.001 227.366L142.955 227.575L141.544 228.202L141.021 228.307H140.393L138.459 227.993L136.158 228.045L135.635 227.889L135.374 227.575L134.903 226.791L134.276 225.903L133.701 225.015L132.028 224.492L129.518 224.44L128.838 224.231L128.263 223.761L127.74 222.768L127.008 221.879L126.067 221.096L125.492 220.312L124.655 219.789L123.453 219.476L122.145 219.371L120.995 219.005L120.472 218.587L119.688 217.803L118.695 217.124L118.067 217.02L115.139 217.176L111.009 216.497L110.381 216.288L109.858 215.922L109.545 215.347L109.492 213.937L109.283 213.466L108.551 212.682L107.819 211.69L107.139 211.219L104.891 210.122L103.427 209.129L102.643 208.763L102.591 208.502L101.545 208.032L100.97 207.875H100.342L97.5188 208.763L95.5842 209.913L93.8587 210.436L92.4993 210.54L91.2967 210.122L90.5124 209.286L90.4079 207.927L90.6693 206.621L90.617 205.471L90.0941 204.583L88.8393 204.113L86.6956 203.747L85.9635 203.486L85.3361 202.963L84.9701 202.388L84.8133 201.657L84.5518 198.365L84.4995 198.103L80.6827 197.529L77.4932 197.947L76.0815 195.491L76.1338 192.199L76.5521 188.645L75.8723 185.667H74.356L73.6763 185.249L72.9966 184.726L58.4088 167.378L57.1539 166.332L54.1736 165.914L47.2196 166.123L43.1936 166.907L43.2981 166.071L43.1936 165.392L42.7753 164.869L39.8473 161.786L39.2198 160.793L39.1675 159.957L40.0564 157.919L41.1544 156.247L41.3635 155.725V154.836L41.7818 154.157L42.6184 153.321L43.5073 153.007L44.3961 153.216L47.2196 154.68L47.8993 154.575L48.5267 153.739L48.8405 152.903L48.8927 150.604L49.2587 149.454L50.3567 147.259L50.7227 146.058L50.6705 143.602L50.4613 142.347L50.0953 141.459L49.5202 141.146L48.3699 140.884L47.9516 140.362L47.5333 138.899L47.3242 138.428L46.2784 137.383L46.017 136.861L46.0693 136.077L47.0104 133.725L47.0627 132.419L46.1739 128.5L45.7556 127.716L45.4419 126.932L45.2327 126.044V125.051L45.7033 123.327L45.3373 123.013L44.9713 122.961L45.285 122.647L49.2587 123.118L53.1279 125.521L57.9905 127.768L60.2911 128.03L72.2123 127.716L76.7089 127.089L81.1009 128.239L86.3818 131.74L89.2053 132.576L89.2576 133.673L87.7936 141.564L87.8458 143.236L87.7413 144.02L87.4276 144.594L86.3296 145.744L86.225 146.528L81.2055 149.402L79.5324 152.224L79.2709 155.516L79.4278 157.188L80.1075 158.703L81.2578 159.592L82.1467 160.584L81.8852 163.824L81.2578 167.064L82.3035 168.005L85.2315 168.161L85.8067 167.012V165.235L86.2773 163.667L87.7936 163.145L92.8653 162.1L94.3293 161.577L95.5842 160.689L96.6822 157.763L95.3227 154.784L93.2836 152.067L93.0222 150.604L93.2313 149.088L93.0222 145.744L93.7542 142.818L95.1136 142.295L98.1462 142.713L101.074 141.302L104.159 140.414L105.309 139.526L104.368 136.599L102.591 134.352L104.682 131.687L104.577 129.911L104.159 128.134L103.636 126.828L102.434 126.462L101.859 126.148L101.493 125.365L100.917 124.999H100.185L96.839 124.476L93.7019 123.17L90.983 121.08L91.6627 118.258L97.6233 115.593L110.486 112.98L113.675 113.032L116.237 114.6L116.812 117.944L118.381 120.766L119.793 121.655L120.472 123.118L120.211 126.514L120.263 128.239L120.838 129.806L121.989 130.224H126.328L129.204 129.702L136.733 126.514L138.25 126.096L139.766 125.939L140.864 125.051L141.334 124.372L142.432 123.118L143.06 122.595L144.576 122.543L145.936 123.379Z" fill="#FDD037" stroke="white" stroke-width="1.89" stroke-linejoin="round"/>
<path d="M72.6306 332.085L63.2714 330.361L52.1345 329.42L33.5729 330.361L32.5795 330.204L32.0566 329.838L31.6383 329.315L31.0109 328.845L31.7429 328.584L32.2135 328.845L32.8932 328.27L33.1546 328.479L33.4161 329.786L34.9324 328.375L35.3506 328.793L36.2395 328.584L37.0761 328.532L37.8081 328.427L38.4878 328.061L39.1152 327.382L39.1675 326.912L39.1152 326.023L39.5335 325.867H41.3112L42.2524 325.71L44.1347 325.083L44.7621 325.24L45.7033 324.874L46.5921 324.351L47.2196 323.672L47.4287 322.731L47.9516 322.522L51.6116 321.948L50.9842 321.582L50.409 321.686L47.9516 321.059L45.4941 322L43.1413 323.358L41.0498 324.038L39.795 324.142L38.2787 324.926L37.2852 325.24H36.7101L36.0304 324.978H35.5075L35.0892 324.613L34.8801 323.515L35.1938 322.575V321.948L34.4618 322.418L33.9389 322.836L32.9978 323.933L31.7952 324.142L31.6383 324.508L31.8998 325.449L31.7429 326.337L31.1678 327.278L30.854 328.114L30.3835 328.636L31.22 329.943L31.0109 330.935L28.4489 331.197L23.5863 330.988L17.8871 331.615L11.1422 331.301L1.41699 332.19V329.524L1.73071 327.591L3.45615 327.748L4.92016 327.591L6.07045 327.957L7.16846 327.905L8.31875 327.121L9.15533 326.18L9.10304 325.553L9.57362 325.292L19.0897 325.71L21.6517 325.396L22.2791 324.665L22.7497 322.522L23.3771 321.634L24.0569 320.902L24.6843 318.655L24.9457 318.028L26.3051 317.454L27.3509 317.767L29.3377 318.812L30.3312 320.119L31.8998 320.171L32.7363 320.014L33.2592 319.283L33.3638 318.655L33.7821 318.237L59.1931 318.133L61.7551 318.812L61.2845 319.962L60.2388 320.798L59.8728 321.895L60.2911 322.94L60.3434 323.515L61.5982 324.508L62.9054 323.829L64.2125 322.94L65.6243 322.627L66.8791 323.097L67.3497 323.985L66.9314 324.926L64.4217 326.285L64.5263 327.382L65.5197 328.009L66.7223 328.323L67.3497 328.897L68.0817 329.368L69.0751 329.106L71.5849 329.211L72.7875 329.629L72.8397 330.779L72.6306 332.085Z" fill="#1CB448" stroke="white" stroke-width="1.89" stroke-linejoin="round"/>
<path d="M260.442 207.666L262.952 208.92L265.096 210.488L265.775 213.466L267.814 215.609L270.69 216.184L273.67 216.131L274.402 216.027L275.082 215.713L276.442 215.348L277.644 216.131L278.428 217.124L278.167 218.378L277.54 219.946L275.71 222.402L274.716 223.395L273.095 223.917L272.05 225.485L270.952 226.844L270.22 228.673L271.056 230.815L272.102 232.278L272.416 234.107L272.154 236.249L273.148 238.026L276.755 239.96L279.422 240.691L283.5 240.743L287.474 240.012L290.245 239.176L292.964 239.28L298.036 241.423L300.389 242.938L302.009 245.237L300.807 247.118L299.029 248.268L297.827 248.32L296.572 248.164L295.265 247.746L294.062 247.537L293.016 247.014L290.873 246.282L289.827 246.753L289.095 247.693L288.624 248.843L288.467 250.202L290.768 253.128L290.925 255.375L290.82 256.159L291.134 256.942L291.291 258.144L290.402 258.928L284.075 263.161L282.611 264.415L274.298 258.249V258.458L272.729 258.615L267.971 258.458L264.782 257.726L255.998 254.8L250.299 255.479L247.841 257.517L247.161 260.6L248.155 263.788L250.194 268.282L250.508 269.849L249.933 270.529L249.096 270.32L248.573 270.058L247.475 269.222L245.488 268.073L244.495 267.028L243.24 266.662L241.828 266.505L240.469 266.087L238.116 264.885L236.913 264.415L233.253 263.788L232.521 263.526L230.378 262.22L228.861 261.802L225.776 261.436L224.312 261.123L222.221 260.391L219.398 260.078L217.201 259.555L215.947 259.346L209.777 259.921L202.143 259.294L200.679 259.451L191.895 262.429L189.647 263.736L188.444 264.885L186.98 265.826L185.934 266.296L185.568 266.192L185.621 264.363L186.144 262.586L186.928 261.332L187.451 259.973L188.13 253.494L187.921 250.62L185.83 246.909L186.928 244.088L187.294 242.572L193.568 241.579L199.686 239.96L205.28 237.138L207.215 235.048L208.731 232.539L210.613 227.314L212.653 218.431L212.496 214.093L212.6 211.376L213.594 206.621L214.378 205.21L214.901 205.053L215.424 204.688L215.581 203.851L215.476 202.963L216.679 202.388L217.306 203.59L218.352 204.113L219.764 204.008L220.809 204.897L222.273 205.001L223.737 205.628L225.254 204.949L226.927 201.866L229.593 201.448L231.005 202.754L231.423 203.747L231.371 204.897L232.783 205.994L234.508 207.039L234.979 212.212L236.077 216.445L239.528 214.564L242.037 211.01L243.188 209.913L244.599 210.488L248.521 211.533L250.299 213.832L251.135 214.668L251.71 215.661L252.756 216.706L254.481 216.497L256.311 214.616L257.723 212.16L258.821 209.547L260.442 207.666Z" fill="#FDD037" stroke="white" stroke-width="1.89" stroke-linejoin="round"/>
<path d="M422.529 35.8521L421.483 44.4742L422.267 47.3482L424.202 49.4907L426.555 51.2151L426.921 53.9846L425.823 56.7018L423.888 59.3668L419.13 63.913L420.019 70.6016L417.98 85.5465L419.026 89.9882L418.817 91.9739L416.202 97.1471L415.941 98.9238L417.091 99.2895L418.555 99.0805L420.333 99.6553L421.588 101.118L422.372 102.686L422.581 104.306L418.189 109.793L416.411 113.033L415.209 114.287L414.268 115.698L414.059 119.46L414.268 123.222L412.961 126.253L410.242 128.291L399.994 131.897L397.536 134.614L396.909 138.167L397.222 141.877L396.752 143.445L395.706 144.751L394.399 145.849L392.674 146.319L391.053 146.476L388.02 146.162L387.602 144.856L387.34 141.668L387.863 131.531L387.602 130.015L386.661 128.814L382.112 124.215L380.02 121.341L377.615 118.781L374.844 116.586L368.883 113.66L362.818 115.28L360.727 114.914L359.576 113.451L361.093 106.553L360.831 102.791L355.603 89.8314L354.296 82.7247L354.243 79.6417L353.982 77.7083L353.093 75.9839L352.204 74.573L351.995 73.0053L351.943 71.2287L351.263 67.7276L350.688 66.0554L348.178 63.5995L345.25 61.5615L344.309 58.6875L343.525 52.3647L342.165 49.4907L340.963 48.6023L339.499 48.6546L337.878 48.2888L336.309 47.5572L334.897 47.4005L332.022 48.2365L330.139 47.9753L329.721 46.8257L328.571 42.384L327.473 40.6596L325.643 40.0848L323.708 40.6073L319.578 42.2795L317.486 42.802L314.454 44.1084L313.669 44.6832L313.199 45.8851L312.519 46.9824L308.702 48.6546L304.572 47.2437L303.421 46.9302L310.846 38.0991L312.31 36.6882L313.146 36.1134L314.035 35.9566L314.558 35.1728L314.715 34.0755L314.924 33.6052L315.656 32.8736L323.917 28.2229L325.747 27.4391L348.074 22.6317L352.256 22.2659L360.152 23.2065L381.327 23.1019L394.504 26.4463L399.314 28.4319L405.327 32.142L407.366 33.7097L408.202 34.18L410.764 34.807L412.804 34.5458L413.745 33.9187L414.477 33.7619L416.673 34.5458L417.143 34.807L417.405 35.5386L417.771 35.5909L418.398 35.0683L418.817 35.0161L419.235 35.2251L419.862 35.8521L420.281 35.5909L421.013 35.7999L422.529 35.8521Z" fill="#FDD037" stroke="white" stroke-width="1.89" stroke-linejoin="round"/>
<path d="M191.006 39.6145L190.274 44.2652L191.634 62.6589L192.575 64.9059L192.366 67.5709L193.568 69.9223L194.196 72.1693L194.457 74.4685L194.823 75.7226L195.085 77.0812L194.823 78.2308L193.882 80.8436L193.15 82.2022L194.039 83.2996L195.503 83.9789L197.908 85.9646L198.379 88.5773L197.071 89.0999L195.712 88.7341L194.928 89.4656L194.719 90.9288L193.673 91.9739L191.843 93.3848L191.111 93.7505L190.222 93.1235H186.98L184.47 94.3253L182.85 102.268L184.314 104.985L184.052 106.501L184.209 108.068L183.791 110.106L183.111 112.092L182.379 113.398L181.542 114.287L178.458 116.22L177.569 117.317L177.098 118.676L176.262 122.647L175.843 123.64L175.268 124.372L174.588 124.947L173.856 125.417L169.412 127.089H168.21L165.386 127.925H164.393L163.451 127.716L160.576 126.671L159.635 126.567L158.798 126.88L158.275 127.559L157.491 129.179L156.968 129.859L156.497 130.172L155.452 130.538L155.033 130.851L154.667 131.426L154.615 132.576L154.406 133.151L153.779 133.726L151.792 134.405L151.112 131.479L147.766 125.835L145.936 123.379L145.57 116.638L142.223 111.308L140.498 110.629L139.661 109.27L140.759 105.926L140.968 102.895L138.929 100.909L137.308 100.335L134.067 99.7598L133.335 99.9689L132.655 100.335L126.067 100.805L123.453 100.23L119.688 98.6102L119.061 97.3039L118.015 96.4678L115.557 96.8336L114.512 96.7813L113.571 96.311L112.629 96.3633L111.897 97.1471L111.531 98.1922L110.747 98.6625L109.754 98.7148L107.453 99.2896L106.564 99.0805L105.832 98.5057L104.055 97.8264L102.277 98.14L102.643 77.2903L104.211 71.9603L110.643 73.0054L123.923 72.4828L126.067 70.1313L125.91 66.6825L125.021 63.3905L125.283 60.4642L127.374 59.0533L129.622 56.1793L131.243 53.5143L133.439 51.7899L143.269 50.8493L144.89 50.379L146.458 49.6997L147.713 47.2437L146.981 39.6145L147.452 38.3604L150.223 36.845L153.36 36.427L155.086 37.1063L156.131 36.7927L156.654 34.9638L156.707 33.762L156.916 32.6646L157.543 32.0898H159.582L160.523 32.2466L162.092 32.7169L162.772 33.5529L163.504 34.2323L167.739 35.2774H171.974L175.373 33.2917L177.569 31.5673L178.614 33.5529L181.176 36.5315L182.797 37.9946L184.209 39.092L185.516 39.5623L186.98 39.719H190.222L191.006 39.6145Z" fill="#FDD037" stroke="white" stroke-width="1.89" stroke-linejoin="round"/>
<path d="M401.51 284.637L400.935 282.391L399.837 280.039L399.314 277.165V274.187L397.222 269.17L392.987 265.146L391.941 263.84L390.373 263.161L389.013 263.788L388.125 265.094L387.183 266.296L386.033 267.289L384.621 267.132L383.419 265.93L381.693 262.795L379.811 258.092L380.177 256.733L382.582 253.912L385.406 251.351L396.647 237.817L399.575 235.413L399.994 234.003L399.784 232.383L400.098 229.352L404.438 220.259L404.176 217.176L402.399 214.929L399.628 213.623L398.111 211.063V209.495L398.32 207.98L397.902 206.621L397.066 205.315L395.601 202.127L393.092 199.88L391.628 199.41L390.164 199.149L389.118 198.156L385.092 190.579L389.066 189.952L392.778 188.28L400.83 183.42L402.451 182.113L403.131 180.285L402.869 174.432L403.34 170.617L410.346 170.983L415.889 167.064L420.385 161.212L422.895 159.069L426.032 158.39L429.535 158.024L432.672 156.613L433.875 155.254L434.659 153.687L435.757 152.851L437.378 152.746L439.94 150.447L442.293 147.677L445.848 146.841L449.613 147.364L452.541 148.67L454.946 150.813L457.508 152.485L460.488 153.112L462.685 151.91L464.201 146.005L466.606 140.048L467.181 136.965V133.934L467.547 131.426L469.011 131.217L469.639 131.322L470.109 131.74L471.521 132.262L472.933 132.419L479.259 131.06L481.821 130.904L481.56 131.426L473.821 142.557L472.619 145.117L470.998 150.656L469.534 158.965L468.541 161.734V162.309L468.802 163.197L468.907 163.72L468.802 164.295L468.122 165.81L467.599 166.437L466.658 167.169L465.665 167.796L464.828 168.109L461.43 168.527L459.966 169.05L459.181 170.565L459.234 171.453L459.756 172.917L459.913 173.753L459.704 174.798L458.711 176.418L458.397 177.306L458.449 178.299L458.868 179.03L460.175 180.337L460.645 181.33L460.541 182.009L460.122 182.741L459.704 183.838L459.129 186.816L458.92 189.638L457.717 192.773L454.842 193.923L451.443 194.446L448.41 195.752L447.835 196.222L446.58 197.842L445.744 198.574L443.182 199.828L442.92 200.037L442.607 200.821L442.816 200.977L444.018 201.134L444.489 202.075L444.803 203.381L444.75 205.106L444.594 205.942L444.332 206.673L442.345 210.331L441.456 212.421L441.404 214.198L441.718 215.818L440.724 224.074L440.254 226.008L439.313 227.262L438.737 227.523L437.012 227.418L436.541 227.627L436.228 228.15L435.809 229.404L435.182 230.815L434.398 231.651L429.953 234.055L429.274 234.212L428.646 234.055L427.235 233.428L426.712 233.271L425.875 233.375L424.829 234.003L424.15 234.316L423.575 234.368L422.947 234.264L421.745 233.846L422.111 234.525L423.104 236.981L423.261 237.608V238.862L422.895 239.228L421.588 240.169L420.647 241.632L420.124 241.998L419.183 242.154L417.509 241.841L416.568 242.259L415.575 243.67L415.261 245.603L415.366 247.589L416.045 251.142L415.993 252.03L415.679 252.971L413.902 255.479L413.64 256.577V258.249L413.902 259.973L414.163 261.018L414.32 261.75L414.058 262.377L412.438 264.101L408.098 270.163L406.529 272.985L406.216 273.925L406.111 274.866L406.163 275.806L406.791 278.367L406.634 279.255L406.059 279.778L405.379 280.248L404.229 281.972L401.51 284.637Z" fill="#FDD037" stroke="white" stroke-width="1.89" stroke-linejoin="round"/>
<path d="M215.476 202.963L215.581 203.852L215.424 204.688L214.901 205.053L214.378 205.21L213.594 206.621L212.6 211.376L212.496 214.093L212.653 218.431L210.613 227.314L208.731 232.539L207.215 235.048L205.28 237.138L199.686 239.96L193.568 241.58L187.294 242.572L185.359 242.886L183.738 242.677L181.072 242.781L179.085 242.572L178.039 240.691L177.778 239.907L177.36 208.502L177.569 207.248L178.614 206.778L186.666 206.464L189.281 207.248L193.307 211.219L195.398 212.369L195.66 212.317L201.777 203.59L205.908 203.12L207.11 203.172L208.313 203.329L209.411 203.799L210.352 203.12L211.711 201.187L213.28 201.761L214.064 203.277L215.476 202.963Z" fill="#FDD037" stroke="white" stroke-width="1.89" stroke-linejoin="round"/>
<path d="M345.25 61.5615L339.499 65.4283L337.198 64.8535L335.839 63.9652L332.597 64.54L331.237 65.0625L330.244 66.0031L329.617 67.9366L329.198 69.9222L326.061 78.7533L325.8 80.2165L326.166 82.0454L325.486 83.5608L312.205 88.6295L310.794 89.5701L309.33 90.2494L305.669 90.5629L303.317 92.6531L302.428 95.9452L304.258 97.1993L306.924 96.4677L308.493 96.2587L309.957 96.6245L310.637 98.0876L311.316 101.275L311.369 102.791L309.905 105.508L309.748 106.971L310.584 108.173H311.996L312.78 107.912L314.558 111.099L318.741 116.69L321.93 117.944L328.832 119.251L332.545 119.408L335.682 120.453L335.473 121.916L334.427 123.118L332.963 124.058L328.152 125.939L327.211 128.918L327.734 130.538L326.532 131.269L324.858 130.642L323.342 129.859L316.493 130.381L313.983 129.336L312.99 126.88L313.356 124.058V121.184L312.362 118.519L310.48 116.743L307.97 117.37L302.375 117.788L300.179 117.004L298.454 114.809L295.735 115.227L292.964 115.07L290.245 113.921L287.683 113.189L285.016 113.137L285.121 112.562L285.069 111.36L285.121 110.786L285.539 109.427L286.219 108.225L290.088 104.724L290.454 103.731L289.513 103.104L288.938 102.947L287.945 102.32L286.742 101.014L286.115 100.073L285.121 97.5651L284.651 97.1993L283.448 97.0425L281.566 97.1993L280.886 96.5722L281.461 93.855L283.03 91.5558L283.448 90.5107L283.605 89.4133L284.128 88.0547L284.232 86.5393L283.605 83.8743L283.134 82.5679L281.095 82.3589L279.579 83.404H276.86L276.808 82.2544L276.494 81.2093L276.18 81.0525L274.35 81.3138L273.357 81.6796L272.468 81.2093L271.893 80.2165L272.259 79.5371L272.677 78.9101L272.938 78.1785L272.886 74.0504L271.056 71.8034L268.337 71.4899L265.88 70.6538L265.514 69.2952L265.566 67.7798L265.043 66.5257L263.945 65.7941L262.795 65.167L261.749 64.3832L261.383 62.8156L261.435 61.0912L261.226 59.9416L260.181 59.4713L257.357 58.7397L254.795 58.3739L252.233 58.8442L250.037 59.9938L248.73 61.9795L247.998 64.1742L247.475 65.0103L246.691 64.54L246.534 63.9129V63.2859L246.22 62.5021L244.024 58.5829L243.501 57.2243L242.56 56.2315L239.109 56.127L236.809 54.7161L236.756 51.8421L237.122 48.8635L237.698 47.7139L242.351 46.9824L245.488 46.9301L248.312 47.2959L255.004 46.9824L255.841 47.7662L256.625 50.0654L257.775 52.1033L258.821 52.7304L259.867 53.1484L260.86 53.0962L262.272 52.3124L262.795 52.9917L263.422 53.5665L265.148 53.7232L267.501 53.2007L269.592 52.0511L271.527 50.5357L271.997 49.7519L272.311 48.9158L272.729 48.2887L273.252 47.8184L273.984 47.4527L274.246 46.3553L286.951 47.8707H288.572L290.873 47.1914L291.657 47.1391L300.911 48.2365L301.8 48.1842L302.585 47.7139L303.421 46.9301L304.571 47.2436L308.702 48.6545L312.519 46.9824L313.199 45.885L313.669 44.6831L314.454 44.1083L317.486 42.802L319.578 42.2794L323.708 40.6073L325.643 40.0847L327.473 40.6595L328.571 42.3839L329.721 46.8256L330.139 47.9752L332.022 48.2365L334.897 47.4004L336.309 47.5572L337.878 48.2887L339.499 48.6545L340.963 48.6023L342.165 49.4906L343.525 52.3646L344.309 58.6874L345.25 61.5615Z" fill="#FDD037" stroke="white" stroke-width="1.89" stroke-linejoin="round"/>
<path d="M285.017 113.137L281.723 114.496L280.938 114.652L279.526 113.869L276.598 115.227L272.154 119.878L270.481 122.438L269.278 123.692L267.71 124.424L265.148 124.581L263.788 127.35L263.527 130.695L263.684 134.405L264.886 137.801L266.873 140.153L267.187 143.184L265.984 146.11L263.998 148.305L263.056 148.514L261.279 148.043L260.442 147.625L258.507 145.326L255.004 144.908L252.651 142.87L253.54 141.668L255.37 141.198L255.998 139.526L255.318 134.248L256.155 130.851L255.318 124.685L250.874 119.93L247.58 119.042L244.547 117.892L243.449 116.429L242.037 115.279L239.005 114.182L237.593 113.242L236.704 111.778L236.913 110.211L237.698 108.748L237.75 107.075L236.234 106.344L230.116 108.33L224.992 112.144L222.012 112.405L219.032 109.845L218.352 107.598L218.666 105.456L219.345 103.313L220.705 101.693L222.744 101.171L225.149 99.9165L227.136 99.4462L226.979 97.7218L225.881 94.9523L225.463 94.3775L225.306 93.6982L225.567 92.8621L225.62 92.026L225.41 90.6152L224.469 87.7411L224.731 78.4398L224.312 74.1026L224.835 72.1169L228.182 69.7655L235.815 66.8914L237.384 65.3761L238.848 61.0912L239.894 59.21L241.881 58.5829H244.024L246.22 62.502L246.534 63.2859V63.9129L246.691 64.54L247.475 65.0103L247.998 64.1742L248.73 61.9795L250.037 59.9938L252.233 58.8442L254.795 58.3739L257.357 58.7397L260.181 59.4713L261.226 59.9415L261.436 61.0912L261.383 62.8156L261.749 64.3832L262.795 65.167L263.945 65.7941L265.043 66.5257L265.566 67.7798L265.514 69.2952L265.88 70.6538L268.337 71.4899L271.056 71.8034L272.886 74.0504L272.938 78.1785L272.677 78.9101L272.259 79.5371L271.893 80.2164L272.468 81.2093L273.357 81.6796L274.35 81.3138L276.18 81.0525L276.494 81.2093L276.808 82.2544L276.86 83.404H279.579L281.095 82.3589L283.134 82.5679L283.605 83.8743L284.232 86.5393L284.128 88.0547L283.605 89.4133L283.448 90.5106L283.03 91.5557L281.461 93.855L280.886 96.5722L281.566 97.1993L283.448 97.0425L284.651 97.1993L285.121 97.5651L286.115 100.073L286.742 101.014L287.945 102.32L288.938 102.947L289.513 103.104L290.454 103.731L290.088 104.724L286.219 108.225L285.539 109.427L285.121 110.786L285.069 111.36L285.121 112.562L285.017 113.137Z" fill="#FDD037" stroke="white" stroke-width="1.89" stroke-linejoin="round"/>
<path d="M102.277 98.1399L104.054 97.8263L105.832 98.5056L106.564 99.0804L107.453 99.2895L109.754 98.7147L110.747 98.6624L111.531 98.1921L111.897 97.147L112.629 96.3632L113.571 96.3109L114.512 96.7812L115.557 96.8335L118.015 96.4677L119.061 97.3038L119.688 98.6101L123.453 100.23L126.067 100.805L132.655 100.335L133.335 99.9688L134.067 99.7598L137.308 100.335L138.929 100.909L140.968 102.895L140.759 105.926L139.661 109.27L140.498 110.629L142.223 111.308L145.57 116.638L145.936 123.379L144.576 122.543L143.06 122.595L142.432 123.118L141.334 124.372L140.864 125.051L139.766 125.939L138.25 126.096L136.733 126.514L129.204 129.702L126.328 130.224H121.989L120.838 129.806L120.263 128.239L120.211 126.514L120.472 123.118L119.793 121.655L118.381 120.766L116.812 117.944L116.237 114.6L113.675 113.032L110.486 112.98L97.6233 115.593L91.6627 118.258L90.983 121.08L93.7018 123.17L96.839 124.476L100.185 124.999H100.917L101.492 125.365L101.858 126.148L102.434 126.462L103.636 126.828L104.159 128.134L104.577 129.911L104.682 131.687L102.59 134.352L104.368 136.599L105.309 139.526L104.159 140.414L101.074 141.302L98.1462 142.713L95.1136 142.295L93.7541 142.818L93.0221 145.744L93.2313 149.088L93.0221 150.604L93.2836 152.067L95.3227 154.784L96.6821 157.763L95.5841 160.689L94.3293 161.577L92.8653 162.1L87.7935 163.145L86.2772 163.667L85.8067 165.235V167.012L85.2315 168.161L82.3035 168.005L81.2578 167.064L81.8852 163.824L82.1466 160.584L81.2578 159.592L80.1075 158.703L79.4278 157.188L79.2709 155.516L79.5323 152.224L81.2055 149.402L86.2249 146.528L86.3295 145.744L87.4275 144.594L87.7412 144.02L87.8458 143.236L87.7935 141.564L89.2575 133.673L89.2052 132.576L86.3818 131.74L81.1009 128.239L76.7089 127.089L72.2123 127.716L60.2911 128.03L57.9905 127.768L53.1279 125.521L49.2587 123.118L45.285 122.647L44.9712 122.961L44.1347 123.013L43.089 121.968L35.2983 110.942L34.6709 109.74L34.5663 108.695L35.7166 105.665L36.2395 103.627L39.2721 98.4534L40.2132 97.4605L42.4615 96.1019L42.9844 95.5794L43.2981 94.6388L43.089 93.7504L42.5661 92.9144L41.5204 91.817L41.2067 91.5557L40.7884 90.6674L40.5269 88.1592L40.7361 87.4276L41.2067 86.7483L41.9909 86.0167L42.7229 84.5013L42.5138 82.986L41.4158 79.7462L41.4681 77.8127L42.6184 71.9602L42.2001 60.8821L42.3569 60.4119L51.873 53.2007L54.6965 50.5357L61.6505 39.5622L63.0099 29.9473L63.3759 29.895L66.67 29.7905L69.4934 30.2608L71.0097 29.5292L72.5783 29.1635L73.9377 30.2608L75.2449 31.5149L77.9637 33.1348L80.8918 34.2322L82.4603 34.6502L83.9766 35.1728L85.4406 36.2179L87.0092 36.9494L88.6301 37.1062L89.9895 36.2701L90.6692 35.1205L91.4535 34.0232L92.6038 33.6574L93.3881 34.598L93.2313 36.0088L92.5515 37.3152L92.447 38.1513V38.9874L92.2378 39.6667L91.9764 40.2937L91.5058 41.9659L91.2444 43.7948L92.7084 46.303L93.7018 49.0726L93.3358 52.3124L92.9176 53.9323L92.7084 55.6567L94.0156 62.8156L93.8587 66.1599L91.9241 67.1527L88.9438 66.2121L85.8067 66.996L84.2381 69.7655L84.5518 86.8528L83.0878 93.8027L81.1532 97.9831L80.7872 102.216L82.1989 103.783L84.1335 104.463L86.0681 103.261L87.5844 101.38L95.8456 97.6173L96.7344 97.4083L97.6756 97.6173L98.3553 97.9831L99.3487 97.6696L100.028 98.0876L100.499 98.7669L101.44 98.6624L102.277 98.1399Z" fill="#FDD037" stroke="white" stroke-width="1.89" stroke-linejoin="round"/>
<path d="M209.725 301.255L210.143 303.031L211.816 306.532L213.019 308.048L214.483 309.406L216.103 310.608L217.777 311.392L219.502 311.183L220.809 310.19L222.378 309.772L224.156 310.66L225.254 312.437L225.724 314.527V316.67L224.26 320.746L221.332 321.059L219.868 320.902L218.509 321.791L220.234 327.382L220.182 330.465L218.3 336.318L219.084 337.467L219.136 338.042L219.607 339.871L219.711 341.229L220.025 342.588L220.13 343.894L219.241 345.201L218.195 346.403L217.881 348.597L218.404 350.844L217.202 351.471L215.685 350.008L214.744 349.381L213.646 348.806L211.45 349.486L208.627 347.343L206.535 347.448L204.444 347.761L204.078 347.396L203.607 347.343L203.398 346.873L202.614 346.403L202.143 346.35L200.993 346.716L199.79 346.507L198.849 345.41L198.379 344.051L197.647 342.849L197.124 341.595L197.385 340.08L196.339 339.296L196.13 338.251L195.451 337.781L194.823 338.251L194.143 338.408L193.777 337.885L194.039 336.579V335.743L194.614 335.22L192.836 331.197L191.947 329.995L191.32 329.629L189.856 329.368L189.228 329.054L188.81 327.957L190.013 324.665L192.418 322.052L192.627 319.073L191.268 318.499L189.908 318.237L187.398 317.14L185.046 317.244L184.47 316.983L184.523 315.572L184.157 314.37L185.307 312.019L186.771 311.078L187.085 312.489L187.398 312.751L188.078 313.743L189.176 314.266L191.058 312.751L192.732 310.765L196.339 308.204L198.535 306.219L200.993 302.927L201.829 302.195L203.189 301.725L204.548 300.627L206.169 299.791L208.261 299.948L209.725 301.255Z" fill="#FDD037" stroke="white" stroke-width="1.89" stroke-linejoin="round"/>
<path d="M244.443 318.76L245.07 321.164L246.743 323.097L247.893 323.933L248.207 324.351L248.364 324.821L249.096 325.658L249.305 327.016L249.776 328.218L250.665 329.368L250.821 330.779L248.103 332.294L247.789 333.757L248.625 335.063L248.259 338.042L245.802 340.498L244.809 341.804L243.972 343.111L243.188 346.403L242.456 347.552L241.201 346.978H240.051L239.475 347.918L238.796 348.754L236.809 349.695L235.972 350.479L234.874 350.531L234.038 348.545L232.417 348.075L230.639 348.65L230.116 349.747L230.848 351.106L230.273 353.039L228.757 355.443L228.129 356.018L228.077 357.063L228.234 358.056L227.659 358.944L226.979 359.728L226.561 360.773L226.404 361.87L224.835 361.295L223.424 360.198L222.692 358.839L222.378 357.324L220.025 356.227L213.698 356.174L211.136 354.868L211.502 352.046L211.45 349.486L213.646 348.806L214.744 349.381L215.685 350.008L217.202 351.471L218.404 350.844L217.881 348.597L218.195 346.403L219.241 345.201L220.13 343.894L220.025 342.588L219.711 341.229L219.607 339.871L219.136 338.042L219.084 337.467L218.3 336.318L220.182 330.465L220.234 327.382L218.509 321.791L219.868 320.902L221.332 321.059L224.26 320.746L225.672 323.776L228.652 325.605L230.587 322.993L231.005 319.335L231.685 317.872L233.515 317.61H235.24L236.913 317.192L238.534 315.05L239.528 314.841H240.521L240.992 314.161L241.201 313.691L242.09 313.743L242.56 314.475L242.874 316.147L243.449 317.61L244.443 318.76Z" fill="#FDD037" stroke="white" stroke-width="1.89" stroke-linejoin="round"/>
<path d="M171.085 360.407L169.987 365.476L169.098 367.461L168.732 369.604L168.21 370.649L167.373 371.537L166.327 372.008L165.438 372.948L166.223 374.882L166.275 375.822L165.595 376.188L159.948 377.076L159.269 377.285L158.432 377.912L157.7 378.696L157.491 379.114L157.386 380.264L157.282 380.525L156.497 380.734L154.667 380.682L153.883 380.995L153.517 382.041L153.622 382.511L154.04 383.19L154.092 383.556L153.883 384.026L153.413 384.288L152.315 384.601L151.426 385.385L150.851 385.489L149.282 385.176L148.916 385.333L147.661 387.057L146.929 387.475L145.779 387.318L144.89 386.9L143.949 386.378L142.485 385.071L141.91 385.333L140.498 387.371L139.295 387.998L137.936 388.259L137.152 388.102L136.315 388.363L135.531 388.729L134.694 388.99L133.23 390.036L131.662 390.872L130.982 390.819L130.198 390.924L129.152 390.767L128.315 390.14L126.119 388.938L124.132 388.259L122.459 387.162L121.257 386.169L121.047 385.489L121.936 385.594L122.825 385.803L122.511 385.28L121.309 383.974L120.891 383.713L120.734 383.922V384.706L120.577 384.862L119.897 384.967L119.217 385.176L118.695 384.915L117.649 385.124L117.178 384.862L117.074 384.549L117.178 382.929L116.969 380.943L116.08 377.024L116.289 376.449L117.335 376.188L120.211 376.136L121.047 375.927L121.257 376.606L121.623 377.129L121.989 376.867L122.302 376.188L122.773 375.718L124.289 375.143L125.021 375.038H125.701L126.067 374.777L125.021 373.889L124.603 373.21L124.394 371.903L124.498 371.224L124.76 370.701L125.335 370.336L126.015 370.179L127.426 370.231L127.949 369.97L128.472 369.395L129.1 368.402L128.42 368.716L127.792 369.238L127.217 369.552L126.381 369.343L125.806 369.97L124.812 369.708L123.766 370.231L123.139 371.224L123.4 372.321L122.93 373.419L122.355 374.046L121.623 374.202L120.734 373.837L120.211 373.053L119.688 372.948L119.479 373.21L119.583 373.784L120.159 374.725L117.597 374.62L112.734 372.948L112.159 372.008L110.747 370.754L109.858 370.126L109.545 369.186L109.44 368.245L109.597 367.827L109.858 367.67L110.59 366.887L111.27 366.573L115.557 366.73L117.126 367.043L118.067 367.514H118.329L118.799 366.939L119.479 365.371L119.845 364.849L120.42 364.587L121.1 364.64L121.727 364.796L122.198 365.162L122.668 366.625L123.348 366.469L123.4 365.737L123.087 365.058L122.355 364.326L121.466 363.699L120.734 363.333L119.897 363.386L119.479 363.804L118.956 365.162L118.485 365.58L117.753 365.894L116.969 366.103L116.289 366.051L115.453 365.58L115.087 364.953V364.222L115.923 361.818L116.028 361.191L115.923 360.355H115.662L114.512 363.647L114.041 364.483L113.466 365.058L112.682 365.371L111.688 365.424L111.218 365.58L110.172 366.155L109.074 366.573L108.237 366.051L107.558 365.424L106.878 364.587L106.355 363.699L105.937 362.445L105.1 361.034L104.943 360.041L105.048 359.153L105.309 358.16L105.728 357.376L106.251 357.011L106.773 357.22L107.662 357.899L107.976 358.003L108.185 357.69L107.924 356.854L107.976 356.436L109.335 355.234L112.891 353.927L113.884 352.255L112.995 352.412L111.479 353.771L109.806 354.293L106.46 356.018L105.832 356.488L103.636 358.526L103.218 358.474L101.597 354.92L101.388 354.659L106.251 342.797L109.335 344.26L111.375 346.612L110.956 349.538L111.322 351.785L112.211 352.464L112.943 352.151L115.453 349.956L115.244 348.545L115.662 347.448L118.485 347.605L119.793 347.396L121.413 347.5L123.087 348.702L124.342 349.12L124.76 348.754L125.021 348.179L127.426 346.664L130.093 346.56L135.165 349.329L137.57 351.942L139.034 352.726L140.236 353.666L140.027 355.234L139.138 356.801L139.295 357.272L139.818 357.69L140.027 358.212L139.87 358.735L139.923 359.414L140.655 359.676L141.439 359.623L145.674 358.735L147.923 357.115L149.7 355.025L152.105 353.196L153.935 351.106L154.458 349.434L154.406 347.709L153.831 347.239L153.047 347.03L150.432 344.626L149.125 342.431L148.602 340.707L148.445 339.244L147.034 336.788L147.191 335.22L147.818 333.966L148.811 333.026L150.328 333.182L151.426 334.332L152.315 335.743H153.517L155.295 333.496L156.445 332.764L160.576 331.04L165.857 327.852L168.523 326.755L170.04 326.703L171.608 326.964L172.811 326.546L174.17 324.926V326.285L174.379 327.591L175.582 331.876L175.843 334.28L176.628 336.422L176.784 338.094L176.994 338.721L177.569 339.819L177.778 340.393L177.83 341.021L177.726 342.954L177.516 343.529L177.255 343.895L176.209 344.313L175.373 344.992L175.164 345.985L175.32 348.284L174.745 350.531L174.798 351.681L174.536 352.464L172.811 354.764L171.974 356.279L171.556 357.376L171.242 358.578L171.085 360.407Z" fill="#FDD037" stroke="white" stroke-width="1.89" stroke-linejoin="round"/>
<path d="M174.17 324.926L172.811 326.546L171.608 326.964L170.039 326.703L168.523 326.755L165.857 327.852L160.576 331.04L156.445 332.764L155.295 333.496L153.517 335.743H152.315L151.426 334.332L150.328 333.182L148.811 333.026L147.818 333.966L147.19 335.22L147.034 336.788L148.445 339.244L148.602 340.707L149.125 342.431L150.432 344.626L153.047 347.03L153.831 347.239L154.406 347.709L154.458 349.434L153.935 351.106L152.105 353.196L149.7 355.025L147.922 357.115L145.674 358.735L141.439 359.623L140.655 359.676L139.923 359.414L139.87 358.735L140.027 358.212L139.818 357.69L139.295 357.272L139.138 356.801L140.027 355.234L140.236 353.666L139.034 352.726L137.57 351.942L135.165 349.329L130.093 346.56L127.426 346.664L125.021 348.179L124.76 348.754L124.341 349.12L123.087 348.702L121.413 347.5L119.793 347.396L118.485 347.605L115.662 347.448L115.244 348.545L115.453 349.956L112.943 352.151L112.211 352.464L111.322 351.785L110.956 349.538L111.375 346.612L109.335 344.26L106.251 342.797L106.303 341.386L105.466 340.132L104.473 339.557L103.532 339.401L103.427 338.826L102.538 337.728L101.492 336.84L100.604 336.318L100.342 335.9L100.97 334.698L101.179 333.444L101.806 332.503L102.747 332.189L103.845 331.615L104.473 330.517L104.787 329.211L105.519 328.114L106.512 325.814L105.728 323.515L104.996 322.313L104.63 322.156L104.421 321.791V320.432L104.577 319.805L104.734 318.394L105.257 317.454L106.564 315.781L108.133 314.266L108.708 313.116L109.388 312.176V311.026L109.911 310.451L110.643 310.138H122.825L124.812 311.706L124.08 312.803L123.662 314.057L124.812 316.931L125.753 316.774L127.897 315.05L129.152 315.154L129.727 315.677L131.086 315.99L131.818 315.729L132.289 315.416L132.916 314.37L133.126 313.743L133.648 310.974L134.067 309.877L135.06 309.615L135.008 308.936L135.583 308.152L135.426 307.63L134.799 306.323L134.903 304.756L135.478 303.188L136.629 301.986L137.204 301.202L137.465 300.157L139.452 295.559L139.348 295.141L139.4 294.566L140.341 293.469L141.387 292.528L142.119 292.058L142.694 291.431L143.112 290.02L142.955 289.027L142.694 288.4L142.537 287.041L143.008 286.101L142.798 285.317L141.491 284.481L141.91 282.965L142.485 282.443L143.687 282.181L144.21 281.92L145.204 280.718L145.988 279.412L146.72 279.778L147.609 279.621L148.341 280.091L148.184 280.927L149.596 281.398L149.909 282.391L149.439 284.324L150.537 285.839L152.524 285.787L154.511 284.951L155.399 284.428L156.236 284.219L156.707 285.003L157.334 285.526L158.798 286.519L160.001 287.93L161.046 287.982L162.667 287.564L163.556 287.668L164.654 288.661L165.647 291.117L166.223 291.901L166.432 292.737L167.007 293.573L169.151 293.155L170.928 292.423L172.079 292.319L172.758 292.842L173.229 293.416L173.334 294.2L173.909 294.514L175.059 294.879L175.164 295.245L175.843 296.761L176.052 298.015L175.843 298.799L175.32 300.418L175.111 302.718L174.745 303.711L174.693 304.181L174.745 306.114L174.641 306.48L173.49 308.936L173.02 310.66L172.967 311.392L173.229 313.691L173.072 319.282L173.229 321.164L174.118 323.62L174.17 324.926Z" fill="#FDD037" stroke="white" stroke-width="1.89" stroke-linejoin="round"/>
<path d="M365.171 190.84L369.824 191.206L385.092 190.579L389.118 198.156L390.164 199.148L391.628 199.41L393.092 199.88L395.601 202.127L397.066 205.315L397.902 206.621L398.32 207.98L398.111 209.495V211.063L399.628 213.623L402.399 214.929L404.176 217.176L404.438 220.259L400.098 229.352L399.784 232.383L399.994 234.002L399.575 235.413L396.647 237.817L385.406 251.351L382.582 253.912L380.177 256.733L379.811 258.092L381.693 262.795L383.419 265.93L384.621 267.132L386.033 267.289L387.183 266.296L388.125 265.094L389.013 263.788L390.373 263.161L391.941 263.84L392.987 265.146L397.222 269.17L399.314 274.186V277.165L399.837 280.039L400.935 282.39L401.51 284.637L398.948 287.146L396.229 291.169L395.392 292.005L394.608 292.632L394.242 292.998L394.503 293.26L395.549 293.469L396.124 293.991L398.32 297.126L399.994 298.955L400.516 300.053L400.15 301.045L399.732 301.254L398.948 300.941L398.477 300.889L397.902 301.098L397.379 301.411L395.549 303.083L394.869 303.501L394.713 304.285L394.451 304.651L392.987 304.912L392.517 304.86L392.151 305.121L391.837 305.905L389.327 307.525L386.661 309.981L385.876 311.078L385.615 312.28L385.876 312.907L386.87 314.005L387.079 314.789L386.974 315.99L386.661 317.14L385.406 320.066L384.36 321.529L383.21 322.209L381.484 322.365L380.334 323.306L379.707 324.769L379.393 326.598L379.131 327.591L378.295 328.375L377.197 328.95L376.099 329.211L375.628 329.159L374.216 328.897L373.589 329.42L373.014 329.472L372.282 329.054L368.308 329.472L367.158 329.315L366.426 328.688L365.589 326.598L364.857 323.202L364.7 321.477L364.805 319.753L364.648 317.663L363.812 315.886L362.348 314.736L358.269 314.005L356.858 312.594L356.021 310.66L355.603 308.675L354.923 306.95L353.459 305.957L349.903 304.599L346.871 302.979L345.721 302.613L344.936 301.986L344.675 299.844L343.891 298.799L343.263 300.053L342.74 301.62L342.374 303.292L342.113 306.637L341.381 307.055L340.492 308.361L340.335 309.04L340.283 310.033L329.094 310.19L327.891 309.824L327.002 309.145L326.532 308.257L325.904 305.069L325.538 304.338L324.911 304.181L323.917 304.808L313.251 313.848L312.258 314.266L311.421 314.005L310.532 313.587L309.539 313.534L308.702 314.475L305.356 325.083L304.833 325.501H303.264L304.31 321.268L304.833 313.9L304.676 311.131L306.088 303.501L307.395 300.941L309.173 298.746L311.369 297.179L313.251 295.402L313.565 290.229L315.29 284.951L313.356 279.882L308.911 275.911L304.99 270.999L300.075 267.602L293.435 266.819L286.742 267.028L285.016 267.341L282.088 268.7L280.729 268.961L280.206 268.02L282.611 264.415L284.075 263.161L290.402 258.928L291.291 258.144L291.134 256.942L290.82 256.159L290.925 255.375L290.768 253.128L288.467 250.201L288.624 248.843L289.095 247.693L289.827 246.753L290.873 246.282L293.016 247.014L294.062 247.537L295.265 247.746L296.572 248.164L297.827 248.32L299.029 248.268L300.807 247.118L302.009 245.237L304.362 245.394L307.656 245.133L310.794 244.244L313.617 242.102L316.127 239.541L319.002 237.451L322.087 235.779L323.29 234.682L325.59 231.912L326.584 230.345L328.675 227.836L338.714 225.38L345.616 221.932L347.132 219.11L347.08 217.438L346.505 214.72L346.819 213.31V212.055L345.564 207.875L344.832 206.673L344.466 205.367L343.995 202.075L344.309 199.253L344.047 196.902L343.106 194.811L345.407 193.296L350.949 193.139L356.282 190.579L359.158 190.108L362.191 190.84H365.171Z" fill="#FDD037" stroke="white" stroke-width="1.89" stroke-linejoin="round"/>
<path d="M154.145 228.568L152.315 230.972L150.537 237.033L149.857 241.579L149.439 242.886L148.55 243.931L147.086 244.244L142.276 243.147L136.263 242.834L131.975 241.841L127.635 240.221L125.439 238.026L123.714 237.347L121.779 239.123L116.812 245.342L116.446 246.805L117.753 249.313L118.381 250.097L119.165 250.724L119.583 251.56L121.361 253.18L124.237 254.957L124.603 257.622L119.897 257.778L118.381 258.249L117.44 259.346L117.178 260.757L116.655 261.802H115.923L114.093 262.116L112.995 261.854L111.27 261.75L108.394 259.921L105.675 260.757L104.786 260.391L104.577 259.607L104.054 259.294L103.427 259.189L100.917 259.503L99.6102 258.667L98.7213 257.151L96.8913 257.099L95.1659 257.778L92.3424 258.04L91.1398 258.301L90.0418 258.771L87.5844 259.294L84.7609 259.033L81.9375 259.189L81.2055 258.719L80.4735 258.562L79.9506 257.674L78.6958 253.494L77.1272 250.933L75.9769 250.202L74.9834 249.313L73.4149 247.014L71.8986 241.109L70.3823 238.758L66.5131 230.188L65.938 227.523L66.5131 224.858L67.4543 223.917L68.1863 222.768L69.232 221.67L70.696 220.834L72.16 218.692L71.428 217.02L69.2843 218.326H68.0817L64.8922 217.594L59.7682 215.766L57.8336 214.773L56.1605 213.31L55.167 211.376L53.9122 209.756L51.9253 208.868L49.8339 209.077L47.8993 210.488L46.8013 212.63L46.383 215.504L45.5464 216.445L44.553 217.176L35.6121 221.67L33.7298 223.081L31.952 223.97L30.0174 225.433L24.8934 227.784L24.3183 227.889L23.8477 227.366L23.3248 227.105L23.0111 226.635L22.2791 226.478L21.5994 226.53L20.606 226.844L19.6648 227.418L17.8871 228.986L16.9982 229.509L16.3185 230.083L16.0048 230.501L15.0114 230.919L12.6062 232.853L11.8219 233.846L10.7762 234.525L7.3253 235.309L5.65215 235.257L3.09013 237.451L2.25356 226.687V226.217L2.51499 225.903L3.24699 225.589L3.50842 224.962L3.24699 223.865L3.40385 223.186L3.92671 221.932L3.979 221.252L3.76985 220.939L3.40385 220.782V220.364L4.03128 219.319L4.29271 218.117L4.39728 215.348L4.24043 214.146L7.58673 214.459L8.16188 214.355L8.94617 213.675L9.41674 213.362L9.88732 213.257L11.2468 213.205L11.7173 213.257L13.0245 213.989H13.5473L16.5276 213.257L17.5734 212.474L18.2531 211.115L19.7171 206.569L20.606 204.897L20.8674 203.956V201.082L20.7105 200.35L20.1877 198.992L19.874 197.738L20.0308 196.536L20.8674 195.177L21.1811 194.916L21.9131 194.707L22.2268 194.393L24.8934 190.892L24.9457 190.683L24.632 189.847L24.9457 188.75L25.6777 188.541L26.5143 188.698L27.2986 188.75L28.7103 187.914L29.024 186.764L28.658 185.458L28.1351 184.099L27.9783 183.211L28.0829 182.218L28.4489 181.33L29.1809 180.807L32.2657 179.501L33.9912 179.083L36.6055 179.344L37.3898 178.612L38.4878 176.522L39.8995 174.85L40.3701 173.962L40.6315 170.199L40.8929 169.468L41.5727 168.841L42.2001 168.527L42.7752 168.109L43.1935 166.907L47.2196 166.123L54.1736 165.914L57.1539 166.332L58.4088 167.378L72.9966 184.726L73.6763 185.249L74.356 185.667H75.8723L76.552 188.645L76.1337 192.199L76.0815 195.491L77.4932 197.947L80.6826 197.529L84.4995 198.103L84.5518 198.365L84.8132 201.657L84.9701 202.388L85.3361 202.963L85.9635 203.486L86.6955 203.747L88.8392 204.113L90.0941 204.583L90.617 205.471L90.6693 206.621L90.4078 207.927L90.5124 209.286L91.2967 210.122L92.4993 210.54L93.8587 210.436L95.5841 209.913L97.5187 208.763L100.342 207.875H100.97L101.545 208.032L102.59 208.502L102.643 208.763L103.427 209.129L104.891 210.122L107.139 211.219L107.819 211.69L108.551 212.683L109.283 213.466L109.492 213.937L109.545 215.348L109.858 215.922L110.381 216.288L111.009 216.497L115.139 217.176L118.067 217.02L118.695 217.124L119.688 217.803L120.472 218.587L120.995 219.005L122.145 219.371L123.453 219.476L124.655 219.789L125.492 220.312L126.067 221.096L127.008 221.879L127.74 222.768L128.263 223.761L128.838 224.231L129.518 224.44L132.028 224.492L133.701 225.015L134.276 225.903L134.903 226.791L135.374 227.575L135.635 227.889L136.158 228.045L138.459 227.993L140.393 228.307H141.021L141.544 228.202L142.955 227.575L144.001 227.366L148.759 227.314L149.439 227.418L150.066 227.68L151.426 228.934L151.739 229.038L154.145 228.568Z" fill="#FDD037" stroke="white" stroke-width="1.89" stroke-linejoin="round"/>
<path d="M263.998 148.305L263.527 151.179L262.011 153.844L262.638 154.993L263.945 155.725L264.939 156.665L265.88 157.763L265.462 159.017L265.252 160.48L264.207 161.891L262.638 162.622L260.442 165.078L259.658 168.37L260.808 171.715L259.083 177.515V180.912L258.821 182.636L259.187 184.099L257.409 186.607V187.339L257.305 188.123L256.05 189.063V195.334L257.828 197.947L259.867 200.089L261.54 202.441L261.331 205.158L260.442 207.666L258.821 209.547L257.723 212.16L256.312 214.616L254.481 216.497L252.756 216.706L251.71 215.661L251.135 214.668L250.299 213.832L248.521 211.533L244.599 210.488L243.188 209.913L242.037 211.01L239.528 214.564L236.077 216.445L234.979 212.212L234.508 207.039L232.783 205.994L231.371 204.897L231.423 203.747L231.005 202.754L229.593 201.448L226.927 201.866L225.254 204.949L223.737 205.628L222.273 205.001L220.809 204.897L219.764 204.008L218.352 204.113L217.306 203.59L216.679 202.388L215.476 202.963L214.064 203.277L213.28 201.761L211.711 201.186L210.352 203.12L209.411 203.799L208.313 203.329L207.11 203.172L205.908 203.12L201.777 203.59L200.731 203.329L199.633 203.642L199.372 202.963L199.843 201.604L199.947 200.977L199.215 200.037L198.64 199.671L197.751 198.312L198.117 196.693L200.47 194.968L200.731 194.132L200.888 193.244L201.307 192.512L201.934 191.937L202.927 190.84L202.666 189.429L201.359 188.75L200.731 187.652L201.097 186.451L200.156 185.667L198.588 185.196L197.699 183.995L198.64 183.263L199.999 183.159L201.15 182.218L201.202 180.598L200.365 173.544L198.274 172.08L191.843 172.185L188.601 171.819L185.516 170.461L183.529 167.9L184.575 166.698L186.039 165.758L187.189 164.347L188.601 163.197L190.013 162.257L191.059 160.898L191.163 159.383L189.856 158.494L186.771 157.345L185.83 156.352L186.405 154.784L186.353 151.231L183.948 149.193L182.431 149.663L181.699 149.454L181.438 145.901L181.072 145.012L179.712 144.49L178.144 144.385L176.732 144.96L176.941 146.737L175.948 147.416L174.275 147.155L172.654 147.468L169.464 148.932L168.105 148.67L167.53 147.312L166.38 146.528L163.295 147.207L158.118 151.231L155.87 153.687L154.929 155.15L153.831 156.404L152.315 156.613L151.583 155.098L150.485 153.791L149.073 152.746L148.811 151.231L148.968 150.342L149.23 149.82L149.334 148.043L149.439 147.521L150.066 146.005L150.275 145.012L150.223 143.967L149.491 141.72L149.439 140.623L149.7 136.913L150.066 135.816L150.903 134.823L151.792 134.405L153.779 133.725L154.406 133.151L154.615 132.576L154.667 131.426L155.033 130.851L155.452 130.538L156.497 130.172L156.968 129.859L157.491 129.179L158.275 127.559L158.798 126.88L159.635 126.567L160.576 126.671L163.451 127.716L164.393 127.925H165.386L168.21 127.089H169.412L173.856 125.417L174.588 124.947L175.268 124.372L175.843 123.64L176.262 122.647L177.098 118.676L177.569 117.317L178.458 116.22L181.542 114.287L182.379 113.398L183.111 112.092L185.098 113.085L186.144 113.346L188.444 113.398L189.385 114.078L189.908 115.123L189.751 115.959L189.072 116.481L187.869 117.788L187.921 119.042L191.111 119.878L192.627 120.818L194.928 123.17L196.339 123.379L197.803 122.595L198.849 121.446L198.797 120.139L198.065 119.042L198.797 116.638L202.091 116.69L203.659 117.265L204.862 116.586L205.071 115.018L205.803 113.607L208.522 111.987L211.711 112.614L213.385 113.346L214.901 114.443L215.738 115.593L216.992 116.168L220.496 114.705L222.012 112.405L224.992 112.144L230.116 108.33L236.234 106.344L237.75 107.075L237.698 108.748L236.913 110.211L236.704 111.778L237.593 113.242L239.005 114.182L242.037 115.279L243.449 116.429L244.547 117.892L247.58 119.042L250.874 119.93L255.318 124.685L256.155 130.851L255.318 134.248L255.998 139.526L255.37 141.198L253.54 141.668L252.651 142.87L255.004 144.908L258.508 145.326L260.442 147.625L261.279 148.043L263.056 148.514L263.998 148.305Z" fill="#FDD037" stroke="white" stroke-width="1.89" stroke-linejoin="round"/>
<path d="M181.072 242.781L183.738 242.677L185.359 242.886L187.294 242.572L186.928 244.088L185.83 246.909L187.921 250.62L188.13 253.494L187.451 259.973L186.928 261.332L186.144 262.586L185.621 264.363L185.568 266.192L185.934 266.296L186.98 265.826L188.444 264.885L189.647 263.736L191.895 262.429L200.679 259.451L202.143 259.294L209.777 259.921L215.947 259.346L217.201 259.555L216.992 262.063L217.097 264.363L217.62 266.61L218.927 268.491L220.182 269.797L221.071 271.365L221.228 272.932L221.123 278.001L221.803 283.279L222.326 285.003L223.737 285.735L225.41 285.526L226.508 286.31L225.62 287.825L225.097 289.079L224.992 290.49L224.208 294.043L222.43 297.022L216.626 300.209L215.947 301.934L215.79 303.92L214.639 304.285L213.228 303.606L211.398 302.091L209.725 301.255L208.261 299.948L206.169 299.791L204.548 300.627L203.189 301.725L201.829 302.195L200.993 302.927L198.535 306.219L196.339 308.204L192.732 310.765L191.058 312.751L189.176 314.266L188.078 313.743L187.398 312.751L187.085 312.489L186.771 311.078L185.307 312.019L184.157 314.37L181.229 317.14L180.183 319.23L179.242 323.515L177.778 324.926L176.68 325.135L175.53 324.874L174.588 324.821L174.17 324.926L174.118 323.62L173.229 321.164L173.072 319.282L173.229 313.691L172.968 311.392L173.02 310.66L173.49 308.936L174.641 306.48L174.745 306.114L174.693 304.181L174.745 303.711L175.111 302.718L175.32 300.418L175.843 298.799L176.052 298.015L175.843 296.761L175.164 295.245L175.059 294.879L173.909 294.514L173.334 294.2L173.229 293.416L172.758 292.842L172.079 292.319L170.928 292.423L169.151 293.155L167.007 293.573L166.432 292.737L166.223 291.901L165.647 291.117L164.654 288.661L163.556 287.668L162.667 287.564L161.046 287.982L160.001 287.93L158.798 286.519L157.334 285.526L156.707 285.003L156.236 284.219L155.399 284.428L154.511 284.951L152.524 285.787L150.537 285.839L149.439 284.324L149.909 282.391L149.596 281.398L148.184 280.927L148.341 280.091L147.609 279.621L146.72 279.778L145.988 279.412L143.269 276.433L141.073 273.037L141.387 271.313L140.08 270.738L136.576 271.365L134.59 270.79L131.191 269.118L130.459 268.491L129.884 268.543L128.42 267.237L127.792 265.355L128.106 263.474L129.361 261.907L130.354 261.332L130.407 260.339L129.779 259.869L128.943 259.764L127.374 259.921L125.806 260.287L124.603 261.018L123.766 260.705L123.714 258.824L124.603 257.622L124.237 254.957L121.361 253.18L119.583 251.56L119.165 250.724L118.381 250.097L117.753 249.313L116.446 246.805L116.812 245.342L121.779 239.124L123.714 237.347L125.439 238.026L127.636 240.221L131.975 241.841L136.263 242.834L142.276 243.147L147.086 244.244L148.55 243.931L149.439 242.886L149.857 241.579L150.537 237.033L152.315 230.972L154.145 228.568L156.079 228.202L156.811 228.255L157.125 228.516L158.746 229.613L159.635 229.77L160.314 230.136L160.889 230.71L161.935 232.539L162.04 233.689L162.719 235.1L163.085 235.466L163.347 236.25L163.451 237.556L164.027 239.646L165.02 241.684L165.334 241.841L169.621 245.133L170.144 245.708L171.87 248.425L173.49 250.202L174.013 250.463L174.066 250.724L174.693 251.299L174.85 251.56L175.582 250.776L175.843 249.627L176.366 248.529L176.889 248.111L177.516 248.477L177.726 247.746L177.621 246.753L178.301 246.073L179.19 245.76L180.497 244.506L181.072 242.781Z" fill="#FDD037" stroke="white" stroke-width="1.89" stroke-linejoin="round"/>
<path d="M207.895 414.909L208.679 415.118L209.463 415.013L211.032 414.595L213.228 414.386L213.646 414.543L213.437 415.118L213.019 415.64L212.287 415.797L210.613 415.745L209.934 415.849L207.79 416.633L207.006 416.685L203.816 416.476L203.137 416.163L202.875 415.588L203.293 414.804L203.764 414.595L205.855 413.916L206.378 414.125L207.895 414.909ZM199.477 413.968L200.156 414.229L202.143 414.02L202.718 414.229L202.195 414.7L201.934 415.222L201.829 416.476L201.62 417.156L201.202 417.574L199.999 418.201L196.13 418.985L194.666 418.88L194.248 418.358L194.666 417.522L196.078 416.058L197.019 414.543L197.856 413.55L198.222 412.401L198.849 412.766L199.477 413.968ZM199.163 383.504L200.052 385.124L199.843 387.266L195.346 394.164L195.921 397.56L197.699 398.083L201.254 397.351L202.98 397.299L204.601 397.978L206.901 398.03L209.829 400.016L210.352 401.114L211.136 402.315L211.502 403.935L211.45 404.98L210.875 405.555L210.77 406.025L210.979 407.123V407.541L210.613 408.063V408.377L211.189 409.056L211.346 409.422L210.457 410.363L209.568 410.937L209.097 410.99L208.679 410.624H208.365L207.999 411.512L207.058 411.408L205.542 410.624L204.444 410.572L203.346 410.363L202.352 409.892L201.829 409.161L201.254 409.422H200.47L200.104 410.206L199.738 410.363V410.624L200.313 410.937L200.052 411.251L200.575 411.408L201.359 412.035L202.509 412.296L202.718 412.557L202.405 413.341L200.47 413.655L199.267 411.983L196.549 409.004L196.13 408.063V406.914L196.026 406.496H195.764L195.137 406.757L194.196 406.809L192.889 405.712L192.575 405.242L191.843 403.256L191.32 402.995L190.745 403.779L190.849 404.197L191.372 404.353L191.686 404.667L192.104 406.13L192.523 406.809L193.307 407.071L194.666 407.75L195.607 409.213L195.764 410.676L194.666 411.251L195.241 411.617L195.869 412.244L196.287 413.028L195.973 413.811L194.823 415.118L194.039 415.484L193.15 415.118V416.006L192.366 415.64L191.738 415.118L191.477 414.491L191.686 413.655L191.111 414.177L190.954 414.909L191.215 415.64L191.686 416.32L190.483 416.633H190.17L189.647 415.588L189.385 414.491L189.281 412.296L188.549 411.094L188.34 410.363L188.81 410.049L189.228 408.847L189.385 407.959L189.281 407.332L190.17 407.645L189.856 407.123L189.019 406.182L188.601 404.719L188.392 404.353L187.608 405.451H187.294L187.137 404.771L186.614 403.779L186.405 404.458L186.51 405.503L186.3 405.816L186.823 406.548L187.764 409.161L187.032 409.109L186.614 408.534L186.039 408.847L185.621 408.011L185.202 407.28L183.948 405.816L184 406.548L184.209 407.123L184.836 408.22L185.359 408.952L185.255 409.683L184.836 410.154L185.15 410.624L185.568 409.945L186.405 409.736L187.137 409.945L187.503 410.519L187.085 413.498L187.189 414.543L188.706 417.574L189.281 418.305L188.967 419.141L188.549 419.298L187.974 419.246L186.666 418.671L186.928 419.298L185.987 419.037L184.993 418.567L184.052 418.358L183.006 418.723L182.536 418.201L182.17 417.522L182.118 416.738L182.431 416.006L181.699 415.588L181.02 414.491L180.549 413.08L180.34 411.983L180.444 411.199L180.654 410.781L181.281 410.049L181.647 408.899L181.542 408.22L180.81 407.959L179.712 407.332L178.928 405.869L178.248 403.151L178.144 402.106L178.248 401.532L179.033 400.382L178.928 400.016L178.51 399.964L177.987 400.486L177.569 399.964L177.36 399.232L176.628 399.494L175.896 399.232L176.052 400.016L176.157 400.8L176.366 401.427L176.941 401.688L177.307 402.002L177.621 402.786L177.987 404.353L178.144 405.973L178.353 406.757L179.294 407.332L179.869 408.011L180.654 409.422L179.66 410.258L179.451 410.624L179.399 411.251L180.235 415.536L180.706 416.842L181.281 417.522L181.176 418.514L182.065 419.298L182.64 419.925L181.542 420.5L180.183 420.761L178.458 420.866L176.837 420.709L175.896 420.187L175.739 419.56L175.896 416.999L176.157 416.476L175.582 415.745V414.229L175.739 413.498L176.732 410.885L176.837 410.415L176.784 409.161L176.209 409.84L175.686 409.161L174.275 408.534L173.072 407.593L172.392 406.13L172.026 404.562L169.36 402.89L165.752 404.249L164.393 404.353L163.922 403.047L164.131 402.211L163.765 401.688L163.138 401.636L162.51 401.323L161.517 400.016L161.569 398.239L162.04 396.724L162.929 395.418L163.033 394.791L163.451 393.85L164.236 393.014L163.661 392.178L163.347 391.185V390.297L163.556 389.199L163.817 388.311L164.079 387.893L164.863 387.527L165.229 386.587L165.438 384.601L166.066 383.19L167.007 382.302L168.053 381.518L169.517 379.689L170.092 378.487L170.928 378.33L171.608 377.651L171.713 377.129L171.504 376.711L170.249 375.247L166.223 374.882L165.438 372.948L166.327 372.008L167.373 371.537L168.21 370.649L168.732 369.604L169.098 367.461L169.987 365.476L171.085 360.407L172.392 361.609L173.856 361.713L173.334 363.229L171.974 370.074L172.288 371.067L173.804 371.171L175.425 370.806L177.203 372.687L176.837 375.77L176.209 377.181L176.262 378.696L176.68 379.166L177.726 379.95L178.039 380.525L182.588 383.504L188.758 383.922L194.196 383.399L196.496 384.078L197.908 383.869L199.163 383.504Z" fill="#FDD037" stroke="white" stroke-width="1.89" stroke-linejoin="round"/>
<path d="M176.209 409.84L175.948 410.154L175.268 411.983L175.007 413.968L175.268 415.431L175.111 415.797L175.007 417.208L174.588 416.215L174.432 415.64L174.327 412.975L174.118 412.401L173.752 412.975L173.177 413.341L173.438 413.968L173.49 416.006L173.647 416.686L174.17 417.626L174.536 418.514L174.954 419.978L175.007 420.5L174.641 420.97L174.222 421.127H172.863L171.66 421.232L171.399 420.97L170.928 419.56L170.824 418.201L170.876 416.215L170.667 414.648L170.04 413.498L168.68 413.655L169.935 414.595L170.353 416.111L170.196 417.887L169.621 419.612L169.517 421.075L167.373 421.545L164.863 421.336L163.661 420.5L162.51 420.814L162.824 421.597L162.092 421.859L160.994 421.963L160.21 422.172L159.373 422.538L157.386 422.59L156.497 422.904L155.504 421.702L156.393 419.821L159.216 416.633L158.014 416.476L157.7 416.633L156.184 418.41L155.975 416.058L155.295 413.916H155.033L154.981 414.804L155.086 415.902L155.243 416.999L154.824 416.895L154.301 416.476L153.517 416.32L153.988 417.313L154.458 417.992L154.772 418.723L154.72 419.873L154.406 420.761L154.092 421.388L153.203 421.963L153.256 422.59L153.831 422.381L154.458 422.59L154.197 423.008L152.942 423.426L151.373 423.479L150.275 423.217L149.648 423.792L148.968 423.531L148.55 423.113L148.445 422.486V421.702L148.655 420.97L149.23 419.925L149.334 419.298L148.445 419.612V418.932L148.602 417.731L147.713 417.574L147.19 417.365L146.615 417.522L146.511 417.94L146.615 418.619L146.981 419.612L146.772 420.187L147.347 421.179L147.557 421.859L147.452 422.799L147.086 422.747L146.615 422.277L145.936 422.015L144.994 421.963L144.628 421.754L144.576 420.187L144.89 419.978L144.262 418.985V417.522H144.001L143.687 418.985L142.798 418.41L143.426 419.873L143.583 420.605L143.06 421.127L142.432 421.023L141.753 420.605L140.864 419.873L139.975 419.56L138.982 418.776L138.459 417.731L138.929 416.633L138.459 416.581L137.988 417.051L137.779 417.522L137.047 416.79L135.269 415.797L135.06 415.275L135.949 415.745L135.635 415.17L135.112 414.909L133.858 414.543L132.969 413.498L132.603 413.08L131.452 411.878L131.191 411.669L127.113 407.907L125.91 406.182L125.492 404.353L126.119 404.667V403.831L124.237 402.681L123.714 401.793L123.505 401.114L122.407 399.232L123.4 399.598L123.034 398.553L121.675 396.985L120.472 393.589L120.054 391.551L119.845 390.872L119.27 389.722L119.061 389.095L118.799 387.998L118.224 387.214L118.067 386.534L118.276 386.012L118.799 385.803L119.479 385.855L120.159 386.064L120.629 386.482L121.413 387.58L121.936 387.893L121.257 386.169L122.459 387.161L124.132 388.259L126.119 388.938L128.315 390.14L129.152 390.767L130.198 390.924L130.982 390.819L131.662 390.872L133.23 390.036L134.694 388.99L135.531 388.729L136.315 388.363L137.152 388.102L137.936 388.259L139.295 387.998L140.498 387.37L141.91 385.333L142.485 385.071L143.949 386.378L144.89 386.9L145.779 387.318L146.929 387.475L147.661 387.057L148.916 385.333L149.282 385.176L150.851 385.489L151.426 385.385L152.315 384.601L153.413 384.287L153.883 384.026L154.092 383.556L154.04 383.19L153.622 382.511L153.517 382.04L153.883 380.995L154.667 380.682L156.497 380.734L157.282 380.525L157.386 380.264L157.491 379.114L157.7 378.696L158.432 377.912L159.269 377.285L159.948 377.076L165.595 376.188L166.275 375.822L166.223 374.882L170.249 375.247L171.504 376.711L171.713 377.129L171.608 377.651L170.928 378.33L170.092 378.487L169.517 379.689L168.053 381.518L167.007 382.302L166.066 383.19L165.438 384.601L165.229 386.587L164.863 387.527L164.079 387.893L163.817 388.311L163.556 389.199L163.347 390.297V391.185L163.661 392.178L164.236 393.014L163.451 393.85L163.033 394.791L162.929 395.418L162.04 396.724L161.569 398.24L161.517 400.016L162.51 401.323L163.138 401.636L163.765 401.688L164.131 402.211L163.922 403.047L164.393 404.353L165.752 404.249L169.36 402.89L172.026 404.562L172.392 406.13L173.072 407.593L174.275 408.534L175.686 409.161L176.209 409.84Z" fill="#FDD037" stroke="white" stroke-width="1.89" stroke-linejoin="round"/>
<path d="M282.611 264.415L280.206 268.02L280.729 268.961L282.088 268.7L285.017 267.341L286.742 267.028L293.435 266.819L300.075 267.602L304.99 270.999L308.911 275.911L313.356 279.882L315.29 284.951L313.565 290.229L313.251 295.402L311.369 297.179L309.173 298.746L307.395 300.941L306.088 303.501L304.676 311.131L304.833 313.9L304.31 321.268L303.264 325.501H302.741L301.434 325.762L300.807 326.337L299.813 328.27L299.081 328.95L298.193 329.368L296.467 330.047L295.631 328.636L294.376 326.337L289.199 320.223L285.33 318.237L278.481 319.544L276.023 319.596L274.821 319.335L273.984 318.603L274.402 315.99L273.357 313.743L268.128 310.66L264.991 309.563L262.011 309.302L259.187 310.347L258.612 311.758L259.03 313.43L258.298 314.684L256.834 315.468L255.004 315.938L253.07 315.99L251.344 315.677H249.619L248.364 316.617L247.161 317.924L245.854 318.603L244.443 318.76L243.449 317.61L242.874 316.147L242.56 314.475L242.09 313.743L241.201 313.691L240.992 314.161L240.521 314.841H239.528L238.534 315.05L236.913 317.192L235.24 317.61H233.515L231.685 317.872L231.005 319.335L230.587 322.993L228.652 325.605L225.672 323.776L224.26 320.746L225.724 316.67V314.527L225.254 312.437L224.156 310.66L222.378 309.772L220.809 310.19L219.502 311.183L217.777 311.392L216.103 310.608L214.483 309.406L213.019 308.048L211.816 306.532L210.143 303.031L209.725 301.254L211.398 302.091L213.228 303.606L214.639 304.285L215.79 303.919L215.947 301.934L216.626 300.209L222.43 297.022L224.208 294.043L224.992 290.49L225.097 289.079L225.62 287.825L226.508 286.31L225.41 285.526L223.737 285.735L222.326 285.003L221.803 283.279L221.123 278.001L221.228 272.932L221.071 271.365L220.182 269.797L218.927 268.491L217.62 266.61L217.097 264.363L216.992 262.063L217.202 259.555L219.398 260.078L222.221 260.391L224.312 261.123L225.776 261.436L228.861 261.802L230.378 262.22L232.521 263.526L233.253 263.788L236.913 264.415L238.116 264.885L240.469 266.087L241.828 266.505L243.24 266.662L244.495 267.028L245.488 268.073L247.475 269.222L248.573 270.058L249.096 270.32L249.933 270.529L250.508 269.849L250.194 268.282L248.155 263.788L247.161 260.6L247.841 257.517L250.299 255.479L255.998 254.8L264.782 257.726L267.971 258.458L272.729 258.615L274.298 258.458V258.249L282.611 264.415Z" fill="#FDD037" stroke="white" stroke-width="1.89" stroke-linejoin="round"/>
<path d="M296.467 330.047L296.206 330.099L294.951 330.935L293.644 333.496L292.389 334.227L290.663 334.28L290.036 334.593L289.461 335.272L288.206 337.885L287.108 339.453L281.147 344.26L277.121 348.441L276.232 349.799L275.657 350.426L274.978 350.792L274.716 351.053L274.612 352.307L274.455 352.882L273.723 352.987L272.782 352.621L271.84 352.516L271.108 353.196L270.481 353.98L268.965 354.972L268.494 355.704L268.599 356.592L269.069 357.272L269.435 358.056L269.226 359.153L268.494 360.093L267.71 360.668L267.344 361.295L267.919 362.393L268.808 363.229L269.801 364.013L270.586 364.849L271.056 366.05L270.847 367.096L270.22 367.932L269.383 368.715L268.703 369.552L268.442 370.492L268.651 372.217L268.703 373.157L268.39 374.098L267.448 375.979L267.187 377.024L267.239 377.599L267.605 378.644L267.658 379.114L266.507 385.071L266.194 385.594L264.73 386.116L264.259 386.587L263.422 387.893L263.161 388.468L262.534 390.401L262.115 391.237L261.488 392.178L259.762 394.895L259.501 395.679L258.298 396.515L257.932 397.194L258.089 398.135L258.351 399.389L257.619 400.068L257.2 399.65L256.834 399.598L256.468 399.755L255.632 400.591L255.004 402.159L254.9 402.995L255.161 403.674V404.04L254.795 404.719L254.272 404.928L253.07 404.667L252.442 404.719L252.129 404.615L252.704 403.465L252.808 402.995L252.233 402.942L251.397 403.36L250.821 403.465L249.514 402.995L249.462 401.793L249.88 400.225L250.089 398.71H249.828L249.514 400.173L248.573 400.957L247.318 400.852L246.168 399.859L246.534 399.232L246.168 399.18L245.331 398.71L245.488 398.083L245.175 397.612L243.972 396.724L242.874 396.097L242.613 395.365L242.142 394.425L241.828 394.059L240.835 393.693L240.312 393.223L239.632 392.387L239.371 392.648L241.776 394.947L242.351 395.679L243.449 397.769L243.658 398.762L242.926 399.232L243.658 400.539L244.129 401.113L244.756 401.532L244.233 401.427L242.56 400.173L237.489 394.843L235.92 392.648L234.717 390.454L234.142 388.05L234.456 382.72L233.724 381.884L231.789 380.63L230.691 380.368L228.129 380.786L227.24 380.107L226.77 379.323L226.038 377.442L227.24 376.083L229.332 376.449L229.855 374.934L227.763 370.91L226.77 366.312L227.136 363.856L226.404 361.87L226.561 360.773L226.979 359.728L227.659 358.944L228.234 358.056L228.077 357.063L228.129 356.018L228.757 355.443L230.273 353.039L230.848 351.106L230.116 349.747L230.639 348.65L232.417 348.075L234.038 348.545L234.874 350.531L235.972 350.479L236.809 349.695L238.796 348.754L239.475 347.918L240.051 346.977H241.201L242.456 347.552L243.188 346.403L243.972 343.111L244.809 341.804L245.802 340.498L248.259 338.042L248.625 335.063L247.789 333.757L248.103 332.294L250.821 330.778L250.665 329.368L249.776 328.218L249.305 327.016L249.096 325.658L248.364 324.821L248.207 324.351L247.893 323.933L246.743 323.097L245.07 321.164L244.443 318.76L245.854 318.603L247.161 317.924L248.364 316.617L249.619 315.677H251.344L253.07 315.99L255.004 315.938L256.834 315.468L258.298 314.684L259.03 313.43L258.612 311.758L259.187 310.347L262.011 309.302L264.991 309.563L268.128 310.66L273.357 313.743L274.402 315.99L273.984 318.603L274.821 319.335L276.023 319.596L278.481 319.544L285.33 318.237L289.199 320.223L294.376 326.337L295.631 328.636L296.467 330.047Z" fill="#FDD037" stroke="white" stroke-width="1.89" stroke-linejoin="round"/>
<path d="M211.45 349.486L211.502 352.046L211.136 354.868L213.698 356.174L220.025 356.227L222.378 357.324L222.692 358.839L223.424 360.198L224.835 361.295L226.404 361.87L227.136 363.856L226.77 366.312L227.763 370.91L229.855 374.934L229.332 376.449L227.24 376.083L224.992 374.307L222.535 372.948L221.071 370.649L218.927 369.134L217.254 368.872L216.104 369.708L216.365 372.687L215.319 375.091L215.267 375.665L216.313 375.979L216.783 376.815L216.522 377.651L215.267 378.487L213.019 378.174L211.084 378.696L211.032 379.585L211.45 380.368L211.555 381.204L210.927 383.974L210.77 385.855L211.032 387.893L210.77 389.826L209.359 391.237L208.365 392.805L208.94 394.947L208.679 395.731L208.574 396.463L209.515 398.187L209.829 400.016L206.901 398.03L204.601 397.978L202.98 397.299L201.254 397.351L197.699 398.083L195.921 397.56L195.346 394.164L199.843 387.266L200.052 385.124L199.163 383.504L202.352 374.307L204.025 372.478L204.548 371.381L204.914 370.231L205.542 369.343L205.855 368.297V367.096L205.646 365.894V364.692L205.333 363.595L204.862 362.758L205.228 362.131L205.699 360.146L205.123 355.234L203.45 353.718L202.248 353.457L200.052 352.36L199.111 351.524L201.15 348.963L204.078 347.396L204.444 347.761L206.535 347.448L208.627 347.343L211.45 349.486Z" fill="#FDD037" stroke="white" stroke-width="1.89" stroke-linejoin="round"/>
<path d="M227.24 376.083L226.038 377.442L226.77 379.323L227.24 380.107L228.129 380.786L230.691 380.368L231.789 380.63L233.724 381.884L234.456 382.72L234.142 388.05L234.717 390.454L235.92 392.648L237.489 394.843L242.56 400.173L244.233 401.427L244.756 401.532L245.018 401.741L245.645 403.622L246.168 404.353L245.697 405.607L245.645 406.025L245.802 406.6L246.743 407.018L247.109 407.332L247.266 408.377L246.586 409.004L245.697 409.474L245.331 410.206L244.704 411.512L243.867 411.826H241.985L239.528 411.512H235.763L233.985 411.251L233.149 411.303L231.685 412.035L230.848 412.139H228.914L221.489 413.028L221.071 412.766L220.548 412.714L220.025 412.871L219.711 413.341H220.548L221.175 413.655L220.234 413.864L218.822 413.968L217.568 413.759L216.992 413.184L216.365 413.028L212.548 412.766L212.862 412.296L212.548 411.983L211.711 412.035L211.607 411.512L211.764 411.251L212.339 410.833L212.548 410.363L211.607 409.161L211.921 408.534L211.293 407.802L211.45 406.705L212.234 404.667H211.921L211.45 404.98L211.502 403.935L211.136 402.315L210.352 401.114L209.829 400.016L209.515 398.187L208.574 396.463L208.679 395.731L208.94 394.947L208.365 392.805L209.359 391.237L210.77 389.826L211.032 387.893L210.77 385.855L210.927 383.974L211.555 381.204L211.45 380.368L211.032 379.585L211.084 378.696L213.019 378.174L215.267 378.487L216.522 377.651L216.783 376.815L216.313 375.979L215.267 375.665L215.319 375.091L216.365 372.687L216.104 369.708L217.254 368.872L218.927 369.134L221.071 370.649L222.535 372.948L224.992 374.307L227.24 376.083Z" fill="#FDD037" stroke="white" stroke-width="1.89" stroke-linejoin="round"/>
<path d="M199.163 383.504L197.908 383.869L196.496 384.078L194.196 383.399L188.758 383.922L182.588 383.504L178.039 380.525L177.726 379.95L176.68 379.166L176.262 378.696L176.209 377.181L176.837 375.77L177.203 372.687L175.425 370.806L173.804 371.172L172.288 371.067L171.974 370.074L173.334 363.229L173.856 361.713L176.732 359.362L180.131 358.421L182.013 359.205L183.738 358.735L185.412 355.234L185.987 353.353L187.66 352.36L189.594 351.889L191.581 351.68L195.555 352.517L197.333 351.942L199.111 351.524L200.052 352.36L202.248 353.457L203.45 353.718L205.123 355.234L205.699 360.146L205.228 362.131L204.862 362.758L205.333 363.595L205.646 364.692V365.894L205.855 367.096V368.297L205.542 369.343L204.914 370.231L204.548 371.381L204.025 372.478L202.352 374.307L199.163 383.504Z" fill="#FDD037" stroke="white" stroke-width="1.89" stroke-linejoin="round"/>
<path opacity="0.8" d="M109.176 305H96V318.168H109.176V305Z" fill="#1CB448" stroke="white" stroke-width="2.52"/>
</g>
<defs>
<clipPath id="clip0">
<rect width="527" height="428" fill="white"/>
</clipPath>
</defs>
</svg>
